<svg width="256" height="157.05075" xmlns="http://www.w3.org/2000/svg" viewBox="0 0 256 157.05074"><path d="M49.135 72.686l102.933-.006.424 73.715-13.257 9.78-11.795-9.398-13.433 9.398-12.232-9.507-12.887 9.288-13.979-9.288-13.215 9.616-12.45-9.835z" fill="#e5e5e5" fill-rule="evenodd"/><path d="M151.862 72.686h91.336l.077 83.412-13.5-9.517-13.077 9.363-12.323-9.318-13.295 9.563-12.395-9.563-12.7 9.658-14.012-10.107z" fill="#e5e5e5" fill-rule="evenodd"/><path d="M.592 147.062l12.336 9.188 11.247-9.33 13.325 9.34 12.125-9.524 12.138 9.535 13.394-9.41 13.837 9.4 12.726-9.307 12.438 9.335 13.35-9.374 11.662 9.344 13.033-9.491 13.695 9.553 12.589-9.585 12.621 9.523 13.424-9.514 12.16 9.496 13.101-9.364 13.685 9.393 11.833-8.657L255.41.592.59.59z" fill="none" stroke="#e6e6e6" stroke-width="1.1800000000000002" stroke-linecap="round"/><path d="M37.249 35.083a12.914 12.914 0 0 1-12.797 12.914 12.914 12.914 0 0 1-13.03-12.68 12.914 12.914 0 0 1 12.561-13.144 12.914 12.914 0 0 1 13.258 12.441" fill="#e5e5e5" stroke="#e5e5e5" stroke-width="1.1800000000000002" stroke-linecap="round" stroke-linejoin="round"/><path fill="#e5e5e5" stroke="#e5e5e5" stroke-width="1.1800000000000002" stroke-linecap="round" d="M13.153 52.848h23.003v3.773H13.153zM13.244 70.304h23.003v56.795H13.244z"/><path fill="#d8d8d8" stroke="#d8d8d8" stroke-width="1.1800000000000002" stroke-linecap="round" d="M226.49 5.597h23.93v4.537h-23.93z"/><path d="M1.882 14.518h252.061" fill="#e5e5e5" fill-rule="evenodd" stroke="#e5e5e5" stroke-width="1"/><path fill="#e5e5e5" stroke="#e5e5e5" stroke-width="1.1800000000000002" stroke-linecap="round" d="M9.33 5.508h29.72v4.537H9.33z"/><path fill="#d8d8d8" stroke="#d8d8d8" stroke-width="1.1800000000000002" stroke-linecap="round" d="M178.76 5.772h10.826v4.537H178.76zM209.875 5.49h10.826v4.537h-10.826zM194.529 5.452h10.826v4.537H194.53z"/><path fill="none" stroke="#e5e5e5" stroke-width="1" stroke-linecap="round" d="M47.824 5.413h89.866v4.865H47.824z"/><path fill="#e2e5e5" stroke="#e5e5e5" stroke-width="1.1800000000000002" stroke-linecap="round" d="M50.905 7.439h.76v.788h-.76z"/><path d="M71.494 38.207l.02 19.772-10.478-9.874z" fill="#347bff" fill-rule="evenodd"/><path fill="#347bff" d="M74.03 37.01h12.45v11.03H74.03z"/><path d="M71.397 48.129H222.38" fill="#347bff" fill-rule="evenodd" stroke="#347bff" stroke-width="1"/><path d="M218.936 38.057l-.02 19.772 10.477-9.874z" fill="#347bff" fill-rule="evenodd"/><path fill="#347bff" d="M86.178 48.188h12.45v8.3h-12.45zM99.283 47.97h12.45v14.743h-12.45zM113.481 30.15h12.45v17.692h-12.45zM126.368 34.427h12.45V47.97h-12.45zM139.344 37.85h12.45v10.266h-12.45zM152.009 48.198h12.45v18.348h-12.45zM177.957 48.352h12.45v10.266h-12.45zM164.674 30.333h12.45v17.474h-12.45zM191.24 48.352h12.45v15.072h-12.45zM203.904 37.54h12.45v10.267h-12.45z"/><path fill="#d8d8d8" d="M54.074 88.832h81.473v3.057H54.074zM54.074 77.037h29.27v6.334h-29.27zM53.965 102.831h81.472v3.058H53.965zM53.965 110.831h56.354v3.058H53.965zM53.965 124.83h81.472v3.059H53.965zM54.02 132.83h81.472v3.058H54.02zM53.965 138.83h40.627v3.058H53.965zM156.952 76.655h29.269v6.334h-29.269zM156.843 88.832h81.472v3.057h-81.472zM156.843 110.831h81.472v3.058h-81.472zM156.843 95.831h81.472v3.058h-81.472zM156.843 102.831h28.614v3.058h-28.614zM156.843 124.83h81.472v3.059h-81.472zM156.843 116.83h81.472v3.059h-81.472zM156.898 138.83h81.472v3.058h-81.472zM147.303 72.786v78.197h-3.058V72.786z"/><path d="M144.253 153.29l3.039-2.23-3.038-.22z" fill="#d8d8d8" fill-rule="evenodd"/><path d="M144.253 153.29l3.047-2.225v-.883l-3.054.682z" fill="#d8d8d8" fill-rule="evenodd"/></svg>
