<svg xmlns="http://www.w3.org/2000/svg" xmlns:xlink="http://www.w3.org/1999/xlink" width="180" height="196" viewBox="0 0 340 370.00001"><defs><linearGradient id="b"><stop offset="0" stop-color="#e7af20"/><stop offset="1" stop-color="#fada68"/></linearGradient><linearGradient id="a"><stop offset="0" stop-color="#0758a8"/><stop offset="1" stop-color="#2c8ff1"/></linearGradient><linearGradient xlink:href="#a" id="c" x1="797.285" y1="-2241.367" x2="797.285" y2="-2257.631" gradientUnits="userSpaceOnUse"/><linearGradient xlink:href="#b" id="d" gradientUnits="userSpaceOnUse" x1="695.654" y1="-2240.41" x2="695.529" y2="-2254.785"/></defs><g transform="translate(-602.654 2292.285)"><path fill="#e3e3e3" d="M655.037-2247.628h16v54.778h-16zM671-2247.633h16v-21.18h-16z"/><path fill="#fee6a8" d="M687.066-2247.597h16v46.256h-16z"/><path fill="#e3e3e3" d="M805.579-2247.712h16.213v-28.306h-16.213z"/><path fill="#bcbcbc" d="M703.972-2246.878h16v38.449h-16zM720.922-2248.113h16v-41.377h-16zM737.947-2248.101h16v-25.48h-16zM755.036-2248.102h16v-34.94h-16zM771.655-2247.839h16v23.307h-16zM788.525-2247.149h16v41.533h-16z"/><path fill="#e3e3e3" d="M821.634-2248.313h16v23.307h-16zM838.509-2247.943h16v45.819h-16z"/><path opacity=".937" fill="#bcbcbc" d="M654.568-2248.139h219.705v1.212H654.568z"/><path opacity=".937" fill="#dda000" d="M654.474-2247.266h133.968v1.742H654.474z"/><path opacity=".937" fill="#0758a9" d="M788.537-2249.674h85.329v1.992h-85.329z"/><ellipse ry="8.678" rx="8.257" cy="-2247.633" cx="797.253" style="isolation:auto;mix-blend-mode:normal" color="#000" overflow="visible" opacity=".23"/><circle style="isolation:auto;mix-blend-mode:normal" cx="796.754" cy="-2248.35" r="8.132" color="#000" overflow="visible" fill="url(#c)" stroke="#78b4f0"/><ellipse style="isolation:auto;mix-blend-mode:normal" cx="695.739" cy="-2244.539" rx="8.257" ry="8.678" color="#000" overflow="visible" opacity=".23"/><circle r="8.132" cy="-2245.32" cx="695.254" style="isolation:auto;mix-blend-mode:normal" color="#000" overflow="visible" fill="url(#d)" stroke="#fbc459"/></g><g transform="translate(-839.55 -1409.736)"><path fill="#fee6a8" d="M839.551 1554.836h156.258v224.899H839.551z"/><path fill="#c3e2ff" d="M1021.551 1554.836h156.258v224.899h-156.258z"/><rect width="122.738" height="5.789" x="850.202" y="1604.458" ry="0" opacity=".102"/><rect width="125.567" height="5.789" x="850.378" y="1622.256" ry="0" opacity=".102"/><rect width="129.456" height="5.789" x="850.378" y="1640.055" ry="0" opacity=".102"/><rect width="72.18" height="5.789" x="850.378" y="1657.854" ry="0" opacity=".102"/><rect width="41.068" height="5.789" x="850.378" y="1689.146" ry="0" opacity=".102"/><rect width="122.738" height="5.789" x="850.378" y="1706.513" ry="0" opacity=".102"/><rect width="125.567" height="5.789" x="850.378" y="1723.881" ry="0" opacity=".102"/><rect width="57.685" height="5.789" x="850.378" y="1741.249" ry="0" opacity=".102"/><rect width="134.406" height="5.789" x="1032.105" y="1604.104" ry="0" opacity=".319"/><rect width="125.567" height="5.789" x="1031.398" y="1621.549" ry="0" opacity=".319"/><rect width="117.081" height="5.789" x="1031.398" y="1638.995" ry="0" opacity=".319"/><rect width="31.168" height="5.789" x="1031.398" y="1656.44" ry="0" opacity=".319"/><rect width="41.068" height="5.789" x="1031.398" y="1687.731" ry="0" opacity=".319"/><rect width="125.567" height="5.789" x="1031.398" y="1705.099" ry="0" opacity=".319"/><rect width="107.182" height="5.789" x="1031.398" y="1722.467" ry="0" opacity=".319"/><rect width="57.685" height="5.789" x="1031.398" y="1739.835" ry="0" opacity=".319"/><rect ry="0" y="1586.659" x="850.732" height="5.789" width="122.738" opacity=".102"/><rect width="72.534" height="11.446" x="850.732" y="1565.446" ry="0" opacity=".102"/><rect ry="0" y="1586.659" x="1031.751" height="5.789" width="134.406" opacity=".319"/><rect width="90.565" height="9.678" x="1031.398" y="1565.446" ry="0" opacity=".319"/><path d="M1034.21 1496.413v48.829l72.996-.086v10.074" fill="none" stroke="#1871c9"/><path d="M932.003 1500.67v39.529l-26.15-.08v15.118" fill="none" stroke="#dba20c"/></g></svg>