<svg xmlns="http://www.w3.org/2000/svg" xmlns:xlink="http://www.w3.org/1999/xlink" width="267.121" height="122.485" viewBox="0 0 267.12106 122.48537"><defs><linearGradient xlink:href="#a" id="d" gradientUnits="userSpaceOnUse" x1="667.029" y1="-2221.8" x2="667.404" y2="-2235.55" gradientTransform="translate(12.827 -18.485)"/><linearGradient id="a"><stop offset="0" stop-color="#e7af20"/><stop offset="1" stop-color="#fada68"/></linearGradient><linearGradient gradientTransform="translate(12.827 -18.485)" xlink:href="#b" id="c" x1="768.854" y1="-2223.159" x2="768.854" y2="-2239.423" gradientUnits="userSpaceOnUse"/><linearGradient id="b"><stop offset="0" stop-color="#0758a8"/><stop offset="1" stop-color="#2c8ff1"/></linearGradient></defs><g transform="translate(-615.48 2310.77)"><path opacity=".899" fill="#e3e3e3" d="M656.108-2249.249h16v-21.18h-16z"/><path opacity=".899" fill="#fee6a8" d="M672.173-2249.212h16v46.256h-16z"/><path opacity=".899" fill="#e3e3e3" d="M790.686-2249.327h16.213v-28.306h-16.213z"/><path opacity=".899" fill="#bcbcbc" d="M689.079-2248.493h16v38.449h-16zM706.029-2249.729h16v-41.377h-16zM723.055-2249.716h16v-25.48h-16zM740.143-2249.717h16v-34.94h-16zM756.762-2249.454h16v23.307h-16zM773.632-2248.764h16v41.533h-16z"/><path opacity=".899" fill="#e3e3e3" d="M806.741-2249.928h16v23.307h-16zM823.616-2249.558h16v45.819h-16z"/><path opacity=".899" fill="#dda000" d="M655.138-2248.881H773.55v1.742H655.138z"/><path opacity=".899" fill="#0758a9" d="M773.645-2251.29h66.237v1.992h-66.237z"/><ellipse ry="8.678" rx="8.257" cy="-2249.248" cx="782.36" style="isolation:auto;mix-blend-mode:normal" color="#000" overflow="visible" opacity=".899"/><circle style="isolation:auto;mix-blend-mode:normal;filter-blend-mode:normal;filter-gaussianBlur-deviation:0" cx="781.862" cy="-2249.965" r="8.132" color="#000" overflow="visible" fill="url(#c)" stroke="#78b4f0"/><ellipse style="isolation:auto;mix-blend-mode:normal" cx="680.846" cy="-2246.154" rx="8.257" ry="8.678" color="#000" overflow="visible" opacity=".367"/><circle r="8.132" cy="-2246.935" cx="680.362" style="isolation:auto;mix-blend-mode:normal" color="#000" overflow="visible" fill="url(#d)" stroke="#fbc459"/><path fill="#fff" stroke="#dadada" stroke-width="1.621" d="M616.291-2309.96h23.158v120.661h-23.158z"/><path d="M630.811-2255.861l-9.15 6.663 9.098 6.698" fill="none" stroke="#171717" stroke-width="2.956" stroke-linecap="round" stroke-linejoin="round"/><path fill="#fff" stroke="#dadada" stroke-width="1.621" d="M881.791-2309.96h-23.158v120.661h23.158z"/><path d="M867.271-2258.119l9.15 6.664-9.097 6.698" fill="none" stroke="#171717" stroke-width="2.956" stroke-linecap="round" stroke-linejoin="round"/><path opacity=".572" fill="#fff" d="M640.569-2310.736H857.14v121H640.569z"/></g></svg>