<svg xmlns="http://www.w3.org/2000/svg" width="178.362" height="99.315" viewBox="0 0 178.36174 99.315223"><path fill="#e3e3e3" d="M64.868 52.444h16.213V30.982H64.868zM81.082 52.445h16.213V0H81.082z"/><path fill="#bcbcbc" d="M97.295 52.443h16.213V17.037H97.295zM113.508 52.443h16.213v31.149h-16.213z"/><path fill="#e3e3e3" d="M129.722 52.443h16.213V76.06h-16.213zM145.935 52.443h16.213v46.873h-16.213zM162.148 52.443h16.213V17.037h-16.213zM0 52.754h16.213v27.968H0zM16.213 52.754h16.213v38.96H16.213zM32.426 52.753H48.64V76.37H32.426zM48.64 52.754h16.213V17.348H48.64z"/><text style="line-height:125%" x="-57.616" y="-3552.105" font-weight="400" font-size="16.617" font-family="sans-serif" letter-spacing="0" word-spacing="0" transform="translate(158.052 3589.255)"><tspan x="-57.616" y="-3552.105">1</tspan></text><text y="-3518.404" x="-42.057" style="line-height:125%" font-weight="400" font-size="16.617" font-family="sans-serif" letter-spacing="0" word-spacing="0" transform="translate(158.052 3589.255)"><tspan y="-3518.404" x="-42.057">2</tspan></text></svg>