<svg xmlns="http://www.w3.org/2000/svg" width="30" height="30" viewBox="0 0 283.67461 328.56086"><path d="M112.037 183.315l13.081 10.638c-19.395 23.495-35.637 38.18-51.396 51.511 11.553-22.015 23.876-43.21 38.315-62.15zM165.5 82.242c-3.145 6.995-8.094 11.658 1.072 23.75-12.936 17.401-30.214 31.916-47.857 46.963-13.992-8.578-23.804-18.506-45.358-9.285l49.564 39.9 49.19 40.356c4.62-22.984-7.104-30.56-18.361-42.502 11.122-20.347 21.8-40.227 36.19-56.447 13.71 6.5 17.262.701 23.466-3.807-17.04-13.51-32.144-26.132-47.906-38.928z"/></svg>