<?xml version="1.0" encoding="utf-8"?>
<!-- Generator: Adobe Illustrator 23.0.3, SVG Export Plug-In . SVG Version: 6.00 Build 0)  -->
<svg version="1.1" id="Layer_1" xmlns="http://www.w3.org/2000/svg" xmlns:xlink="http://www.w3.org/1999/xlink" x="0px" y="0px"
	 viewBox="0 0 135 135" style="enable-background:new 0 0 135 135;" xml:space="preserve">
<style type="text/css">
	.st0{fill:#999999;}
</style>
<g>
	<path class="st0" d="M10.9,47.8L10.9,47.8l-2.6,2v1.5l2.1,2.1h2.4l3.6-3.6l-2-2L10.9,47.8L10.9,47.8z"/>
	<path class="st0" d="M10,49.9c-0.3,0-0.6,0.3-0.6,0.6c0,0.3,0.3,0.6,0.6,0.6c0.3,0,0.6-0.3,0.6-0.6C10.6,50.2,10.3,49.9,10,49.9z
		 M40,39.7c0.4,0.8,0.6,1.7,0.5,2.6l-0.8,1.6h2.2v-4.3H40z M58.3,47.2l-0.8-0.8c-0.5-0.5-1.2-1.1-1.7-1.6c-1.2-1.4-1.6-3.3-1-5.1
		c0.5-1.2,2.9-9.1,3.5-11l-7.9-2.3l-0.2,0.8c0,0.1,0,0.1,0.2,0.3c0.2,0.2,0.3,0.5,0.3,0.8c-0.1,0.7-1.1,1.2-1.6,1.3
		c-0.2,0.1-0.5,0.2-0.6,0.5c-0.1,0.3-0.1,0.7,0.1,1V31c0,0.1,0,0.2,0,0.3l-0.1,0.1c-0.2,0.3-1.2,3-1.6,4l-0.3,0.8
		c-0.1,0.3-0.2,0.5-0.3,0.7c-0.6,1.8-2.9,1.8-3,1.8h-0.4c-0.1,0-0.1,0-0.2-0.1V44h1.3c0.5,0,1.1,0.1,1.6,0.2l4.5,1.3
		c0.6,0,2.4,0,2.9,0.1c0.7,0.1,1.3,0.5,1.8,0.9c0.5,0.4,0.7,1.1,0.7,1.7c0,0.4,0.4,0.6,0.9,0.6h1.2l0.9-1.1L58.3,47.2L58.3,47.2z
		 M49.6,40.1c-0.3,0.8-1.8,0.2-1.5-0.5c0,0,2.8-7.9,3-8.5c0.2-0.6,1.8-0.1,1.6,0.5C52.6,31.9,49.9,39.4,49.6,40.1z"/>
	<path class="st0" d="M49,38.5c0,0-0.4,1.2-0.5,1.4c-0.1,0.2,0.5,0.4,0.6,0.2c0.1-0.2,0.5-1.3,0.5-1.4C49.7,38.5,49.1,38.3,49,38.5z
		 M49.7,36.7c0,0-0.5,1.2-0.6,1.4s0.5,0.4,0.6,0.2c0.1-0.2,0.5-1.3,0.5-1.3C50.3,36.7,49.8,36.5,49.7,36.7z M50.3,34.9
		c0,0-0.4,1.1-0.5,1.3s0.5,0.4,0.6,0.2s0.4-1.2,0.5-1.3C51,34.9,50.3,34.7,50.3,34.9z M50.9,33.2c0,0-0.4,1.1-0.5,1.3
		s0.5,0.4,0.6,0.2s0.4-1.1,0.4-1.2C51.6,33.1,51,33,50.9,33.2z M51.6,31.4c0,0-0.4,1.1-0.5,1.3c-0.1,0.2,0.5,0.4,0.6,0.2
		c0.1-0.2,0.4-1.2,0.4-1.2C52.3,31.4,51.6,31.2,51.6,31.4z M63.1,22.8c0,0-0.1-0.1-0.3-0.2c-0.8-0.2-9.6-2.2-10.2-2.3
		c-0.3,0-0.5,0.2-0.6,0.4c0,0.1-0.1,0.3-0.1,0.4c-0.2,0.8-0.4,1.9-1.4,1.9c-0.1,0-0.3,0-0.4-0.1l-12.9-4.8l-5.1,4.6
		c-0.1,0-0.1,0.1-0.2,0.1c-0.1,0-0.7-0.5-0.9-0.3l-0.6,0.6L29,24.5c0.1,0.3,0,0.6-0.2,0.8c-0.2,0.2-0.6,0.3-0.8,0.1l-2.4,2.2
		c-0.2,0.2,0.2,0.7,0,1c-0.2,0.3-0.6,0.2-0.7,0.3c-0.1,0-2.5,2.1-2.5,2.2l-0.8,0.1c-0.3,0.2-2.6,2.4-2.8,2.5s-0.6,0.5-0.4,1
		c0.1,0.3,0.2,0.4,0,0.6c0,0-1.5,1.3-2.1,2c-0.3,0.3-0.1,1-0.6,1.4c-0.4,0.4-1.5,1.3-1.6,1.4c-0.5,0.5-0.5,0.7-0.2,1.1
		c0.4,0.5,0.7,0.7,1,0.7c0.3,0,0.6-0.1,0.8-0.3c0.2-0.1,1.3-0.8,1.4-1c0.2-0.2,0.5-0.3,0.8-0.3h1.9l1.1-0.9c1-0.8,4.2-3.8,4.6-4.2
		c0.7-1.2,1.3-2.5,1.9-3.8v-0.1l0.3-0.5v-0.1c0.1-0.1,0.2-0.2,0.3-0.2h0.6l2.2-1.8v-0.1c0-0.3,0.2-0.5,0.4-0.6
		c0.1-0.1,0.3-0.1,0.4-0.1h0.2l1.7-1.6c0.4-0.2,0.5-0.8,0.3-1.1l-0.1-0.1c-0.1-0.1,0-0.3,0.1-0.3l0.1-0.1l2.6-2.4l0.1-0.1
		c0.1,0,0.1-0.1,0.2-0.1h0.1L50,25.5l8.7,2.7L62,27c0.3-1,0.9-3.1,1-3.6v-0.1C63.1,23.1,63.2,22.8,63.1,22.8L63.1,22.8z M53.6,24.3
		c-0.5,0-0.9-0.4-0.9-0.9s0.4-0.9,0.9-0.9c0.5,0,0.9,0.4,0.9,0.9C54.5,23.9,54.1,24.3,53.6,24.3z M9,57.1l0.8-0.2
		c0.1,0,0.1-0.1,0.1-0.1v-3.1l-0.8-0.8L9,57.1L9,57.1z"/>
	<path class="st0" d="M55.2,49c-0.4-0.1-0.4-0.6-0.4-0.8c-0.2-1.1-1.1-1.9-2.2-2c-0.5-0.1-2.8-0.1-2.8-0.1l-3.3-1l-1.3-0.4
		c-0.4-0.1-0.9-0.2-1.3-0.2h-7.1c-0.1,0-0.1,0-0.2,0c-0.8-0.4-1.3-1.3-1.1-2.2C35.3,42.2,35,42,35,41.6h-0.5v-0.1
		c-0.1-0.4-0.4-0.7-0.8-0.7h-0.3v-0.1c-0.1-0.3,0-1.2-0.7-1.2h-0.2l-0.1-0.1l-0.1-0.1c-0.1-0.2-0.2-0.3-0.8-0.3h-3.3
		c0,0-0.8,0-0.8,0.5v0.3h-6.2l-1.2,1H18c-0.2,0-0.4,0-0.6,0.1c-0.2,0.2-1.6,1.1-1.6,1.1c-0.3,0.2-0.6,0.3-0.9,0.3h-0.2
		c-1.1-0.1-1.3-1-1.8-1c-0.2,0-0.3,0.2-0.4,0.4c-0.3,0.6-0.5,1.2-0.7,1.9c-0.1,0.4-0.3,1.9-0.4,2.5h0.7v0.6l-0.5,0.5h2.6
		c0.2,0,0.3,0.1,0.5,0.2l1.6,1.5l0.4,0.4c0-0.1,0.1-0.2,0.1-0.3v-0.6c0-0.6,0.5-1,1.1-1c0,0,0.1,0,0.1,0h2.6c0.3,0,0.4-0.2,0.6-0.6
		c0-0.1,0.1-0.1,0.1-0.2c0.2-0.4,0.7-0.7,1.1-0.6h4.8l2.7,1.3l5.7,0.1c0.4,0,0,1.3,1.8,1.3h11c0.3,0,0.6-0.2,0.7-0.6
		c0.2-0.4,0.6-0.6,1-0.6h1.1l0.1,1.9v3.1c0,0.1,0,0.1,0,0.2h0.5c0.4,0,0.5,0,1.1-0.6c0.6-0.6,2.2-2.3,2.3-2.5
		c0.1-0.1,0.1-0.1,0.1-0.2C55.4,49.2,55.3,49.1,55.2,49z M18.2,44.2h-1.1c-0.6,0-0.8,0-0.8,0.2v1.3h-0.9v-1.9c0-0.5,0.7-0.6,1-0.6
		c0.3,0,1.8,0,1.8,0V44.2L18.2,44.2z M22.7,44.2h-2.4v-0.9h2.4V44.2z M31.5,45.9c-0.9,0.2-1.8,0.2-2.6-0.1c-0.7-0.3-1.4-0.7-2-1.1
		c-0.6-0.3-1.3-0.5-2.1-0.5v-1c0.8,0,1.5,0.2,2.3,0.4c0.2,0.1,1,0.6,1.5,0.9c0.7,0.4,1.6,0.6,2.4,0.4c0.2-0.1,0.4-0.1,0.6-0.1
		C32.3,45,32.2,45.8,31.5,45.9L31.5,45.9z M38,47.1c-0.4,0-0.8-0.4-0.8-0.8c0-0.4,0.4-0.8,0.8-0.8c0.4,0,0.8,0.4,0.8,0.8
		C38.8,46.7,38.4,47.1,38,47.1L38,47.1z M48,47.9c-0.4,0-0.8-0.4-0.8-0.8c0-0.4,0.4-0.8,0.8-0.8c0.4,0,0.8,0.4,0.8,0.8
		C48.8,47.6,48.4,47.9,48,47.9C48,47.9,48,47.9,48,47.9L48,47.9z"/>
	<path class="st0" d="M57,49.4l-4,4.8h-2.2v1.3c0,0.1-0.1,0.2-0.2,0.2h-5.5c-0.1,0-0.2-0.1-0.2-0.2v-1.3h-0.6v0.9H32.6v-0.9h-2.7
		v0.5h-4.4l-2.8,3.2h-8.4l-0.4-0.6c0,0-0.1-0.1-0.1-0.1h-1.2c-0.1,0-0.2,0-0.2-0.3v-0.1c0-0.3,0.1-0.3,0.2-0.3h0.6
		c0.1,0,0.1,0,0.1-0.1c0,0,0-0.1,0-0.2L13.2,56c-0.4-0.6-0.5-0.8-0.5-0.8c-0.1-0.1-0.1-0.2-0.1-0.3c0-0.1,0-0.2,0-0.3
		c0.1-0.2,0.1-0.3,0.3-0.4l4.2-4.2c0.3-0.4,0.4-0.7,0.4-1.5C17.4,48,18,48,18,48h2.6c0.7,0,1-0.7,1.2-1l0.1-0.1v-0.1
		c0.1-0.2,0.2-0.3,0.6-0.3h4.6c0,0,2.7,1.3,2.8,1.3l5.4,0.1c0.2,0,0.2,1.3,2.2,1.3h11c0.6,0,1.1-0.4,1.3-0.9
		c0.1-0.2,0.2-0.3,0.4-0.3h0.5l0.1,1.3v0.3c0,0,0,0,0,0.1v2.9c0,0.4,0.3,0.6,0.8,0.6H52c0.8,0,1.1-0.4,1.7-0.9
		c0.6-0.6,2.1-2.4,2.2-2.5c0-0.1,0.1-0.3,0.1-0.4L57,49.4L57,49.4z M10.9,85.7L10.9,85.7l-2.6-2v-1.5l2.1-2.1h2.4l3.6,3.6l-2,2
		L10.9,85.7L10.9,85.7z"/>
	<path class="st0" d="M10,83.6c-0.3,0-0.6-0.3-0.6-0.6s0.3-0.6,0.6-0.6c0.3,0,0.6,0.3,0.6,0.6C10.6,83.4,10.3,83.6,10,83.6z
		 M40,93.8c0.4-0.8,0.6-1.7,0.5-2.6l-0.8-1.6h2.2v4.3L40,93.8z M57.5,84.7h-1.2c-0.6,0-0.9,0.2-0.9,0.6c0,0.6-0.3,1.2-0.7,1.7
		c-0.5,0.5-1.1,0.8-1.8,0.9c-0.5,0.1-2.3,0-2.9,0.1l-4.5,1.4c-0.5,0.2-1,0.3-1.6,0.2h-1.2v5.3c0.1,0,0.1-0.1,0.2-0.1h0.4
		c0.1,0,2.3,0,3,1.8c0.1,0.2,0.2,0.5,0.3,0.7l0.3,0.8c0.4,1,1.4,3.8,1.6,4l0.1,0.1c0,0.1,0,0.2,0,0.3v0.1c-0.2,0.3-0.2,0.7-0.1,1
		c0.1,0.2,0.3,0.4,0.6,0.5c0.5,0.2,1.6,0.6,1.6,1.3c0,0.3-0.1,0.6-0.3,0.8c-0.1,0.2-0.2,0.2-0.2,0.3l0.2,0.8l7.9-2.4
		c-0.6-1.9-3.1-9.7-3.5-11c-0.6-1.8-0.2-3.7,1-5.1c0.5-0.5,1.2-1.1,1.7-1.6l0.8-0.8l0.1-0.5l-0.9-1.1L57.5,84.7z M51.1,102.5
		c-0.2-0.6-3-8.5-3-8.5c-0.3-0.7,1.2-1.3,1.5-0.5c0.3,0.8,3,8.2,3.1,8.5C52.9,102.6,51.3,103.1,51.1,102.5L51.1,102.5z"/>
	<path class="st0" d="M49,95c0,0-0.4-1.2-0.5-1.4c-0.1-0.2,0.5-0.4,0.6-0.2c0.1,0.2,0.5,1.3,0.5,1.4C49.7,95,49.1,95.2,49,95z
		 M49.7,96.9c0,0-0.5-1.2-0.6-1.4s0.5-0.4,0.6-0.2c0.1,0.2,0.5,1.3,0.5,1.3C50.3,96.9,49.8,97,49.7,96.9z M50.3,98.6
		c0,0-0.4-1.1-0.5-1.3s0.5-0.4,0.6-0.2s0.4,1.2,0.5,1.3C51,98.7,50.3,98.8,50.3,98.6z M50.9,100.3c0,0-0.4-1.1-0.5-1.3
		s0.5-0.4,0.6-0.2s0.4,1.1,0.4,1.2C51.6,100.4,51,100.5,50.9,100.3z M51.6,102.1c0,0-0.4-1.1-0.5-1.3c-0.1-0.2,0.5-0.4,0.6-0.2
		c0.1,0.2,0.4,1.2,0.4,1.2C52.3,102.2,51.6,102.3,51.6,102.1z M63,110.1L63,110.1c-0.2-0.6-0.8-2.7-1-3.7l-3.3-1.2l-8.7,2.7
		l-13.1,3.7h-0.1c-0.1,0-0.1,0-0.2-0.1l-0.1-0.1l-2.6-2.4l-0.1-0.1c-0.1-0.1-0.1-0.2-0.1-0.3l0.1-0.1c0.2-0.4,0.1-0.9-0.3-1.1
		l-1.7-1.6h-0.2c-0.2,0-0.3,0-0.4-0.1c-0.2-0.1-0.4-0.4-0.4-0.6V105l-2.2-1.8H28c-0.1,0-0.2-0.1-0.3-0.2v-0.1l-0.2-0.5v-0.1
		c-0.6-1.3-1.2-2.6-1.9-3.8c-0.4-0.4-3.6-3.3-4.6-4.2l-1.1-0.9h-1.9c-0.3,0-0.6-0.1-0.8-0.3c-0.2-0.1-1.3-0.8-1.4-1
		c-0.3-0.2-0.5-0.3-0.8-0.3c-0.3,0-0.6,0.2-1,0.7c-0.3,0.4-0.3,0.6,0.2,1.1c0.1,0.1,1.1,0.9,1.6,1.4s0.3,1.1,0.6,1.4
		c0.6,0.6,2.1,2,2.1,2c0.2,0.2,0.1,0.3,0,0.6c-0.2,0.5,0.3,0.8,0.4,1c0.1,0.1,2.5,2.3,2.8,2.5l0.8,0.1l2.5,2.2c0,0,0.5,0,0.7,0.3
		c0.2,0.3-0.2,0.8,0,1l2.4,2.2c0.3-0.1,0.6-0.1,0.8,0.1c0.2,0.2,0.3,0.5,0.2,0.8l1.4,1.3l0.6,0.6c0.2,0.2,0.8-0.3,0.9-0.3
		c0.1,0,0.1,0,0.2,0.1l5.1,4.6l12.9-4.8c0.1,0,0.3-0.1,0.4-0.1c1,0,1.3,1.2,1.4,1.9c0,0.1,0.1,0.3,0.1,0.4c0,0.3,0.3,0.5,0.6,0.4
		c0.5-0.1,9.3-2,10.2-2.3c0.3-0.1,0.3-0.2,0.3-0.2C63.2,110.7,63.2,110.3,63,110.1L63,110.1z M53.6,111c-0.5,0-0.9-0.4-0.9-0.9
		c0-0.5,0.4-0.9,0.9-0.9c0.5,0,0.9,0.4,0.9,0.9C54.5,110.6,54.1,111,53.6,111z M9,76.4l0.8,0.2c0.1,0,0.1,0.1,0.1,0.1v3.1l-0.8,0.8
		L9,76.4L9,76.4z"/>
	<path class="st0" d="M55.4,83.9c-0.1-0.2-1.7-1.9-2.3-2.5c-0.7-0.6-0.7-0.5-1.1-0.6h-0.5c0,0.1,0,0.1,0,0.2v3.1l-0.1,2h-1.1
		c-0.4,0-0.8-0.2-1-0.6c-0.1-0.3-0.4-0.5-0.7-0.6h-11c-1.8,0-1.4,1.3-1.8,1.3L30,86.3l-2.7,1.3h-4.8c-0.5,0.1-0.9-0.2-1.1-0.6v0
		c0-0.1-0.1-0.1-0.1-0.2c-0.2-0.4-0.4-0.6-0.6-0.6H18c-0.6,0.1-1.1-0.3-1.2-0.9c0,0,0-0.1,0-0.1v-0.6c0-0.1,0-0.2-0.1-0.3l-0.4,0.4
		l-1.6,1.5c-0.1,0.1-0.3,0.2-0.5,0.2h-2.7l0.5,0.5v0.6h-0.7c0.1,0.6,0.3,2.1,0.4,2.5c0.2,0.6,0.4,1.2,0.7,1.9
		c0.1,0.2,0.2,0.4,0.4,0.4c0.5,0.1,0.7-0.8,1.8-1h0.2c0.3,0,0.7,0.1,0.9,0.3c0,0,1.4,0.9,1.6,1.1c0.2,0.1,0.4,0.1,0.6,0.1h2.1l1.2,1
		h6.1V94c0.1,0.5,0.8,0.5,0.8,0.5h3.2c0.6,0,0.6-0.1,0.8-0.3l0.1-0.1l0.1-0.1h0.2c0.7,0,0.7-0.9,0.7-1.2v-0.1h0.3
		c0.4,0,0.8-0.3,0.8-0.7v-0.1h0.5c0-0.3,0.3-0.6,0.6-0.7c-0.2-0.9,0.3-1.8,1.1-2.2c0.1,0,0.1,0,0.2,0h7.1c0.5,0,0.9-0.1,1.3-0.2
		l1.3-0.4l3.3-1c0,0,2.3,0,2.8-0.1c1.1-0.1,2.1-1,2.2-2.1c0-0.2,0-0.7,0.4-0.8c0.2,0,0.3-0.2,0.3-0.3C55.5,84.1,55.5,84,55.4,83.9z
		 M18.2,90.3h-1.8c0,0-1-0.1-1-0.6v-1.9h0.9v1.3c0,0,0.3,0.2,0.8,0.2h1.1L18.2,90.3L18.2,90.3z M22.7,90.3h-2.4v-0.9h2.4V90.3z
		 M31.6,88.6c-0.2,0-0.4,0-0.6-0.1c-0.8-0.2-1.7,0-2.4,0.4c-0.5,0.4-1.3,0.8-1.5,0.9c-0.7,0.3-1.5,0.4-2.3,0.4v-1
		c0.7,0,1.4-0.2,2.1-0.5c0.6-0.4,1.3-0.8,2-1.1c0.8-0.3,1.7-0.3,2.6-0.2C32.2,87.7,32.3,88.5,31.6,88.6L31.6,88.6z M38,88
		c-0.4,0-0.8-0.4-0.8-0.8c0-0.4,0.4-0.8,0.8-0.8c0.4,0,0.8,0.4,0.8,0.8C38.8,87.6,38.5,88,38,88L38,88z M48,87.1
		c-0.4,0-0.8-0.4-0.8-0.8s0.4-0.8,0.8-0.8c0.4,0,0.8,0.4,0.8,0.8C48.8,86.8,48.4,87.1,48,87.1L48,87.1z"/>
	<path class="st0" d="M57,84.1l-4-4.8h-2.2V78c0-0.1-0.1-0.2-0.2-0.2h-5.5c-0.1,0-0.2,0.1-0.2,0.2v1.3h-0.6v-0.9H32.6v0.9h-2.7v-0.5
		h-4.4l-2.8-3.2h-8.4l-0.4,0.6c0,0-0.1,0.1-0.1,0.1h-1.2c-0.1,0-0.2,0-0.2,0.3v0.1c0,0.3,0.1,0.3,0.2,0.3h0.6c0.1,0,0.1,0,0.1,0.1
		c0,0,0,0.1,0,0.2l-0.2,0.3c-0.4,0.6-0.5,0.8-0.5,0.8c-0.1,0.1-0.1,0.2-0.1,0.3c0,0.1,0,0.2,0,0.3c0.1,0.2,0.1,0.3,0.3,0.4l4.2,4.2
		c0.3,0.4,0.4,0.7,0.4,1.5c0,0.4,0.6,0.4,0.6,0.4h2.6c0.7,0,1,0.7,1.2,1l0.1,0.1v0.1C22,86.9,22,87,22.5,87h4.6c0,0,2.7-1.3,2.8-1.3
		l5.5-0.1c0.2,0,0.2-1.3,2.2-1.3h11c0.6,0,1.1,0.4,1.3,0.9c0.1,0.2,0.2,0.3,0.4,0.3h0.5l0.1-1.3v-0.3c0,0,0,0,0-0.1v-2.9
		c0-0.4,0.3-0.6,0.8-0.6H52c0.8,0,1.1,0.4,1.7,0.9s2.1,2.4,2.2,2.5c0,0.1,0.1,0.3,0.1,0.4L57,84.1L57,84.1z M93.7,48.5h4v3.2h-4
		V48.5z M104.1,48.5h4v2.4h-4V48.5z M93.3,79.1h4v6.3h-4V79.1z M82.9,79.1h4v6.3h-4V79.1z"/>
	<path class="st0" d="M67.2,0.1H67c-0.2,7.9-1,20-1,19.9c0.4,0,1.4-0.1,1.9-0.1H69c16.5,0.4,31.7,9.1,40.3,23.2h-4.8
		c-8-11.6-21-18.7-35.1-19.2h-1.5c0,0-1.7,0.1-2.2,0.1c0-0.2-3.6,22.9-6.3,28.3C52.3,66.8,14.6,65.5,0,67.7
		c14.2,1.1,45.9-0.7,55.4,9.2c6.3,5.6,10.2,34.6,10.2,34.3c0.6,0,1.7,0.1,2.3,0.1s1.1,0,1.7,0c14.6-0.5,28-8.2,35.8-20.5h4.7
		c-8.4,14.8-23.9,24.1-40.9,24.5h-3.3c0,0,0.6,12.7,0.7,18.6h1.2c37.2-0.3,67.2-30.1,67.2-66.9C135,30,104.7,0,67.2,0.1L67.2,0.1z
		 M101.7,46.9h7.2c0.8-0.1,1.5,0.4,1.6,1.2c0,0.1,0,0.3,0,0.4v2.4c0.1,0.8-0.4,1.5-1.2,1.6c-0.1,0-0.3,0-0.4,0l1.6,4h-2.4l-1.6-4
		h-2.4v4h-2.4L101.7,46.9L101.7,46.9z M108.1,70.1v1.6h-8.8v-1.6l5.6-6.3h-5.6v-1.6h8.8v1.6l-5.6,6.3H108.1z M91.2,48.5
		c-0.1-0.8,0.4-1.5,1.2-1.6c0.1,0,0.3,0,0.4,0h5.6c0.8-0.1,1.5,0.4,1.6,1.2c0,0.1,0,0.3,0,0.4v7.9h-2.4v-3.2h-4v3.2h-2.4
		C91.2,56.4,91.2,48.5,91.2,48.5z M97.7,62.2v9.5h-2.4v-9.5L97.7,62.2z M80.8,46.9h8.8v1.6h-3.2v7.9H84v-7.9h-3.2V46.9z M80.8,62.2
		h2.4v9.5h-2.4V62.2z M79.2,79.1H76V87h-2.4v-7.9h-3.2v-1.6h8.8V79.1z M79.2,63.8h-6.4v6.3h6.4v1.6H72c-0.8,0.1-1.5-0.4-1.6-1.2
		c0-0.1,0-0.3,0-0.4v-6.3c-0.1-0.8,0.4-1.5,1.2-1.6c0.1,0,0.3,0,0.4,0h7.2V63.8z M79.2,48.5h-6.4v2l4.8,0.8c0.8-0.1,1.5,0.4,1.6,1.2
		c0,0.1,0,0.3,0,0.4v2c0.1,0.8-0.4,1.5-1.2,1.6c-0.1,0-0.3,0-0.4,0h-7.2v-1.6h6.4v-2L72,52.1c-0.8,0.1-1.5-0.4-1.6-1.2
		c0-0.1,0-0.3,0-0.4v-2c-0.1-0.8,0.4-1.5,1.2-1.6c0.1,0,0.3,0,0.4,0h7.2V48.5z M89.3,85.4c0.1,0.8-0.4,1.5-1.2,1.6
		c-0.1,0-0.3,0-0.4,0h-5.6c-0.8,0.1-1.5-0.4-1.6-1.2c0-0.1,0-0.3,0-0.4v-6.3c-0.1-0.8,0.4-1.5,1.2-1.6c0.1,0,0.3,0,0.4,0h5.6
		c0.8-0.1,1.5,0.4,1.6,1.2c0,0.1,0,0.3,0,0.4V85.4z M90.4,71.7H88v-7.9h-3.2v-1.6h8.8v1.6h-3.2V71.7z M99.8,85.4
		c0.1,0.8-0.4,1.5-1.2,1.6c-0.1,0-0.3,0-0.4,0h-5.6c-0.8,0.1-1.5-0.4-1.6-1.2c0-0.1,0-0.3,0-0.4v-6.3c-0.1-0.8,0.4-1.5,1.2-1.6
		c0.1,0,0.3,0,0.4,0h5.6c0.8-0.1,1.5,0.5,1.5,1.3c0,0.1,0,0.2,0,0.3L99.8,85.4z M110.2,87H103c-0.8,0.1-1.5-0.4-1.6-1.2
		c0-0.1,0-0.3,0-0.4v-7.9h2.4v7.9h6.4L110.2,87z M109.7,70.1v-6.3c-0.1-0.8,0.4-1.5,1.2-1.6c0.1,0,0.3,0,0.4,0h7.2v1.6h-6.4v2.3h4.8
		v1.6h-4.8v2.4h6.4v1.6h-7.2c-0.8,0.1-1.5-0.4-1.6-1.2C109.7,70.4,109.7,70.3,109.7,70.1L109.7,70.1z M120.6,79.1h-6.4v2l4.8,0.8
		c0.8-0.1,1.5,0.4,1.6,1.2c0,0.1,0,0.3,0,0.4v2c0.1,0.8-0.4,1.5-1.2,1.6c-0.1,0-0.3,0-0.4,0h-7.2v-1.6h6.4v-2l-4.8-0.8
		c-0.8,0.1-1.5-0.4-1.6-1.2c0-0.1,0-0.3,0-0.4v-2c-0.1-0.8,0.4-1.5,1.2-1.6c0.1,0,0.3,0,0.4,0h7.2L120.6,79.1z M125.8,71.7l-4-7.1
		v7.1h-1.6v-9.5h3.2l4,7.1v-7.1h1.6v9.5L125.8,71.7z"/>
</g>
</svg>
