<svg version="1.1" id="Layer_1" xmlns="http://www.w3.org/2000/svg" x="0" y="0" viewBox="0 0 135 135" xml:space="preserve"><style>.st0{fill:#231f20}</style><path class="st0" d="M10.9 47.8l-2.6 2v1.5l2.1 2.1h2.4l3.6-3.6-2-2h-3.5z"/><path class="st0" d="M10 49.9c-.3 0-.6.3-.6.6s.3.6.6.6.6-.3.6-.6-.3-.6-.6-.6zm30-10.2c.4.8.6 1.7.5 2.6l-.8 1.6h2.2v-4.3H40v.1zm18.3 7.5l-.8-.8c-.5-.5-1.2-1.1-1.7-1.6a5.23 5.23 0 01-1-5.1c.5-1.2 2.9-9.1 3.5-11l-7.9-2.3-.2.8c0 .1 0 .1.2.3.2.2.3.5.3.8-.1.7-1.1 1.2-1.6 1.3-.2.1-.5.2-.6.5s-.1.7.1 1V31v.3l-.1.1c-.2.3-1.2 3-1.6 4l-.3.8c-.1.3-.2.5-.3.7-.6 1.8-2.9 1.8-3 1.8h-.4c-.1 0-.1 0-.2-.1V44H44c.5 0 1.1.1 1.6.2l4.5 1.3c.6 0 2.4 0 2.9.1.7.1 1.3.5 1.8.9s.7 1.1.7 1.7c0 .4.4.6.9.6h1.2l.9-1.1-.2-.5zm-8.7-7.1c-.3.8-1.8.2-1.5-.5 0 0 2.8-7.9 3-8.5s1.8-.1 1.6.5c-.1.3-2.8 7.8-3.1 8.5z"/><path class="st0" d="M49 38.5s-.4 1.2-.5 1.4.5.4.6.2.5-1.3.5-1.4c.1-.2-.5-.4-.6-.2zm.7-1.8s-.5 1.2-.6 1.4.5.4.6.2.5-1.3.5-1.3c.1-.3-.4-.5-.5-.3zm.6-1.8s-.4 1.1-.5 1.3.5.4.6.2.4-1.2.5-1.3c.1-.2-.6-.4-.6-.2zm.6-1.7s-.4 1.1-.5 1.3.5.4.6.2.4-1.1.4-1.2c.2-.4-.4-.5-.5-.3zm.7-1.8s-.4 1.1-.5 1.3.5.4.6.2.4-1.2.4-1.2c.2-.3-.5-.5-.5-.3zm11.5-8.6s-.1-.1-.3-.2c-.8-.2-9.6-2.2-10.2-2.3-.3 0-.5.2-.6.4 0 .1-.1.3-.1.4-.2.8-.4 1.9-1.4 1.9-.1 0-.3 0-.4-.1l-12.9-4.8-5.1 4.6c-.1 0-.1.1-.2.1s-.7-.5-.9-.3l-.6.6-1.4 1.4c.1.3 0 .6-.2.8-.2.2-.6.3-.8.1l-2.4 2.2c-.2.2.2.7 0 1s-.6.2-.7.3c-.1 0-2.5 2.1-2.5 2.2l-.8.1c-.3.2-2.6 2.4-2.8 2.5s-.6.5-.4 1c.1.3.2.4 0 .6 0 0-1.5 1.3-2.1 2-.3.3-.1 1-.6 1.4-.4.4-1.5 1.3-1.6 1.4-.5.5-.5.7-.2 1.1.4.5.7.7 1 .7s.6-.1.8-.3c.2-.1 1.3-.8 1.4-1 .2-.2.5-.3.8-.3h1.9l1.1-.9c1-.8 4.2-3.8 4.6-4.2.7-1.2 1.3-2.5 1.9-3.8v-.1l.3-.5v-.1c.1-.1.2-.2.3-.2h.6l2.2-1.8v-.1c0-.3.2-.5.4-.6.1-.1.3-.1.4-.1h.2l1.7-1.6c.4-.2.5-.8.3-1.1l-.1-.1c-.1-.1 0-.3.1-.3l.1-.1 2.6-2.4.1-.1c.1 0 .1-.1.2-.1h.1L50 25.5l8.7 2.7L62 27c.3-1 .9-3.1 1-3.6v-.1c.1-.2.2-.5.1-.5zm-9.5 1.5c-.5 0-.9-.4-.9-.9s.4-.9.9-.9.9.4.9.9-.4.9-.9.9zM9 57.1l.8-.2c.1 0 .1-.1.1-.1v-3.1l-.8-.8-.1 4.2z"/><path class="st0" d="M55.2 49c-.4-.1-.4-.6-.4-.8-.2-1.1-1.1-1.9-2.2-2-.5-.1-2.8-.1-2.8-.1l-3.3-1-1.3-.4c-.4-.1-.9-.2-1.3-.2h-7.3c-.8-.4-1.3-1.3-1.1-2.2-.2-.1-.5-.3-.5-.7h-.5v-.1c-.1-.4-.4-.7-.8-.7h-.3v-.1c-.1-.3 0-1.2-.7-1.2h-.2l-.1-.1-.1-.1c-.1-.2-.2-.3-.8-.3h-3.3s-.8 0-.8.5v.3h-6.2l-1.2 1h-2c-.2 0-.4 0-.6.1-.2.2-1.6 1.1-1.6 1.1-.3.2-.6.3-.9.3h-.2c-1.1-.1-1.3-1-1.8-1-.2 0-.3.2-.4.4-.3.6-.5 1.2-.7 1.9-.1.4-.3 1.9-.4 2.5h.7v.6l-.5.5h2.6c.2 0 .3.1.5.2l1.6 1.5.4.4c0-.1.1-.2.1-.3v-.6c0-.6.5-1 1.1-1h2.7c.3 0 .4-.2.6-.6 0-.1.1-.1.1-.2.2-.4.7-.7 1.1-.6h4.8l2.7 1.3 5.7.1c.4 0 0 1.3 1.8 1.3h11c.3 0 .6-.2.7-.6.2-.4.6-.6 1-.6h1.1l.1 1.9V52.7h.5c.4 0 .5 0 1.1-.6s2.2-2.3 2.3-2.5c.1-.1.1-.1.1-.2.1-.2 0-.3-.1-.4zm-37-4.8h-1.1c-.6 0-.8 0-.8.2v1.3h-.9v-1.9c0-.5.7-.6 1-.6h1.8v1zm4.5 0h-2.4v-.9h2.4v.9zm8.8 1.7c-.9.2-1.8.2-2.6-.1-.7-.3-1.4-.7-2-1.1-.6-.3-1.3-.5-2.1-.5v-1c.8 0 1.5.2 2.3.4.2.1 1 .6 1.5.9.7.4 1.6.6 2.4.4.2-.1.4-.1.6-.1.7.2.6 1-.1 1.1zm6.5 1.2c-.4 0-.8-.4-.8-.8s.4-.8.8-.8.8.4.8.8-.4.8-.8.8zm10 .8c-.4 0-.8-.4-.8-.8s.4-.8.8-.8.8.4.8.8c0 .5-.4.8-.8.8z"/><path class="st0" d="M57 49.4l-4 4.8h-2.2v1.3c0 .1-.1.2-.2.2h-5.5c-.1 0-.2-.1-.2-.2v-1.3h-.6v.9H32.6v-.9h-2.7v.5h-4.4l-2.8 3.2h-8.4l-.4-.6-.1-.1h-1.2c-.1 0-.2 0-.2-.3v-.1c0-.3.1-.3.2-.3h.6c.1 0 .1 0 .1-.1v-.2l-.1-.2c-.4-.6-.5-.8-.5-.8-.1-.1-.1-.2-.1-.3v-.3c.1-.2.1-.3.3-.4l4.2-4.2c.3-.4.4-.7.4-1.5-.1-.5.5-.5.5-.5h2.6c.7 0 1-.7 1.2-1l.1-.1v-.1c.1-.2.2-.3.6-.3h4.6s2.7 1.3 2.8 1.3l5.4.1c.2 0 .2 1.3 2.2 1.3h11c.6 0 1.1-.4 1.3-.9.1-.2.2-.3.4-.3h.5l.1 1.3v3.3c0 .4.3.6.8.6h.4c.8 0 1.1-.4 1.7-.9.6-.6 2.1-2.4 2.2-2.5 0-.1.1-.3.1-.4h1zM10.9 85.7l-2.6-2v-1.5l2.1-2.1h2.4l3.6 3.6-2 2h-3.5z"/><path class="st0" d="M10 83.6c-.3 0-.6-.3-.6-.6s.3-.6.6-.6.6.3.6.6c0 .4-.3.6-.6.6zm30 10.2c.4-.8.6-1.7.5-2.6l-.8-1.6h2.2v4.3l-1.9-.1zm17.5-9.1h-1.2c-.6 0-.9.2-.9.6 0 .6-.3 1.2-.7 1.7-.5.5-1.1.8-1.8.9-.5.1-2.3 0-2.9.1l-4.5 1.4c-.5.2-1 .3-1.6.2h-1.2v5.3c.1 0 .1-.1.2-.1h.4c.1 0 2.3 0 3 1.8.1.2.2.5.3.7l.3.8c.4 1 1.4 3.8 1.6 4l.1.1v.4c-.2.3-.2.7-.1 1 .1.2.3.4.6.5.5.2 1.6.6 1.6 1.3 0 .3-.1.6-.3.8-.1.2-.2.2-.2.3l.2.8 7.9-2.4c-.6-1.9-3.1-9.7-3.5-11-.6-1.8-.2-3.7 1-5.1.5-.5 1.2-1.1 1.7-1.6l.8-.8.1-.5-.9-1.1v-.1zm-6.4 17.8c-.2-.6-3-8.5-3-8.5-.3-.7 1.2-1.3 1.5-.5s3 8.2 3.1 8.5c.2.6-1.4 1.1-1.6.5z"/><path class="st0" d="M49 95s-.4-1.2-.5-1.4c-.1-.2.5-.4.6-.2.1.2.5 1.3.5 1.4.1.2-.5.4-.6.2zm.7 1.9s-.5-1.2-.6-1.4.5-.4.6-.2c.1.2.5 1.3.5 1.3.1.3-.4.4-.5.3zm.6 1.7s-.4-1.1-.5-1.3.5-.4.6-.2.4 1.2.5 1.3c.1.3-.6.4-.6.2zm.6 1.7s-.4-1.1-.5-1.3.5-.4.6-.2.4 1.1.4 1.2c.2.4-.4.5-.5.3zm.7 1.8s-.4-1.1-.5-1.3c-.1-.2.5-.4.6-.2.1.2.4 1.2.4 1.2.2.4-.5.5-.5.3zm11.4 8c-.2-.6-.8-2.7-1-3.7l-3.3-1.2-8.7 2.7-13.1 3.7h-.1c-.1 0-.1 0-.2-.1l-.1-.1-2.6-2.4-.1-.1c-.1-.1-.1-.2-.1-.3l.1-.1c.2-.4.1-.9-.3-1.1l-1.7-1.6h-.2c-.2 0-.3 0-.4-.1-.2-.1-.4-.4-.4-.6v-.1l-2.2-1.8H28c-.1 0-.2-.1-.3-.2v-.1l-.2-.5v-.1c-.6-1.3-1.2-2.6-1.9-3.8-.4-.4-3.6-3.3-4.6-4.2l-1.1-.9H18c-.3 0-.6-.1-.8-.3-.2-.1-1.3-.8-1.4-1-.3-.2-.5-.3-.8-.3s-.6.2-1 .7c-.3.4-.3.6.2 1.1.1.1 1.1.9 1.6 1.4s.3 1.1.6 1.4c.6.6 2.1 2 2.1 2 .2.2.1.3 0 .6-.2.5.3.8.4 1 .1.1 2.5 2.3 2.8 2.5l.8.1 2.5 2.2s.5 0 .7.3-.2.8 0 1l2.4 2.2c.3-.1.6-.1.8.1.2.2.3.5.2.8l1.4 1.3.6.6c.2.2.8-.3.9-.3.1 0 .1 0 .2.1l5.1 4.6 12.9-4.8c.1 0 .3-.1.4-.1 1 0 1.3 1.2 1.4 1.9 0 .1.1.3.1.4 0 .3.3.5.6.4.5-.1 9.3-2 10.2-2.3.3-.1.3-.2.3-.2 0-.1 0-.5-.2-.7zm-9.4.9c-.5 0-.9-.4-.9-.9s.4-.9.9-.9.9.4.9.9-.4.9-.9.9zM9 76.4l.8.2c.1 0 .1.1.1.1v3.1l-.8.8-.1-4.2z"/><path class="st0" d="M55.4 83.9c-.1-.2-1.7-1.9-2.3-2.5-.7-.6-.7-.5-1.1-.6h-.5V84.1l-.1 2h-1.1c-.4 0-.8-.2-1-.6-.1-.3-.4-.5-.7-.6h-11c-1.8 0-1.4 1.3-1.8 1.3l-5.8.1-2.7 1.3h-4.8c-.5.1-.9-.2-1.1-.6 0-.1-.1-.1-.1-.2-.2-.4-.4-.6-.6-.6H18c-.6.1-1.1-.3-1.2-.9v-.7c0-.1 0-.2-.1-.3l-.4.4-1.6 1.5c-.1.1-.3.2-.5.2h-2.7l.5.5v.6h-.7c.1.6.3 2.1.4 2.5.2.6.4 1.2.7 1.9.1.2.2.4.4.4.5.1.7-.8 1.8-1h.2c.3 0 .7.1.9.3 0 0 1.4.9 1.6 1.1.2.1.4.1.6.1H20l1.2 1h6.1v.2c.1.5.8.5.8.5h3.2c.6 0 .6-.1.8-.3l.1-.1.1-.1h.2c.7 0 .7-.9.7-1.2v-.1h.3c.4 0 .8-.3.8-.7v-.1h.5c0-.3.3-.6.6-.7-.2-.9.3-1.8 1.1-2.2h7.3c.5 0 .9-.1 1.3-.2l1.3-.4 3.3-1s2.3 0 2.8-.1c1.1-.1 2.1-1 2.2-2.1 0-.2 0-.7.4-.8.2 0 .3-.2.3-.3.1 0 .1-.1 0-.2zm-37.2 6.4h-1.8s-1-.1-1-.6v-1.9h.9v1.3s.3.2.8.2h1.1v1zm4.5 0h-2.4v-.9h2.4v.9zm8.9-1.7c-.2 0-.4 0-.6-.1-.8-.2-1.7 0-2.4.4-.5.4-1.3.8-1.5.9-.7.3-1.5.4-2.3.4v-1c.7 0 1.4-.2 2.1-.5.6-.4 1.3-.8 2-1.1.8-.3 1.7-.3 2.6-.2.7.3.8 1.1.1 1.2zM38 88c-.4 0-.8-.4-.8-.8s.4-.8.8-.8.8.4.8.8-.3.8-.8.8zm10-.9c-.4 0-.8-.4-.8-.8s.4-.8.8-.8.8.4.8.8c0 .5-.4.8-.8.8z"/><path class="st0" d="M57 84.1l-4-4.8h-2.2V78c0-.1-.1-.2-.2-.2h-5.5c-.1 0-.2.1-.2.2v1.3h-.6v-.9H32.6v.9h-2.7v-.5h-4.4l-2.8-3.2h-8.4l-.4.6-.1.1h-1.2c-.1 0-.2 0-.2.3v.1c0 .3.1.3.2.3h.6c.1 0 .1 0 .1.1v.2l-.2.3c-.4.6-.5.8-.5.8-.1.1-.1.2-.1.3v.3c.1.2.1.3.3.4l4.2 4.2c.3.4.4.7.4 1.5 0 .4.6.4.6.4h2.6c.7 0 1 .7 1.2 1l.1.1v.1c.1.2.1.3.6.3h4.6s2.7-1.3 2.8-1.3l5.5-.1c.2 0 .2-1.3 2.2-1.3h11c.6 0 1.1.4 1.3.9.1.2.2.3.4.3h.5l.1-1.3v-.3-3c0-.4.3-.6.8-.6h.3c.8 0 1.1.4 1.7.9s2.1 2.4 2.2 2.5c0 .1.1.3.1.4h1zm36.7-35.6h4v3.2h-4v-3.2zm10.4 0h4v2.4h-4v-2.4zM93.3 79.1h4v6.3h-4v-6.3zm-10.4 0h4v6.3h-4v-6.3z"/><path class="st0" d="M67.2.1H67c-.2 7.9-1 20-1 19.9.4 0 1.4-.1 1.9-.1H69c16.5.4 31.7 9.1 40.3 23.2h-4.8c-8-11.6-21-18.7-35.1-19.2h-1.5s-1.7.1-2.2.1c0-.2-3.6 22.9-6.3 28.3C52.3 66.8 14.6 65.5 0 67.7c14.2 1.1 45.9-.7 55.4 9.2 6.3 5.6 10.2 34.6 10.2 34.3.6 0 1.7.1 2.3.1h1.7c14.6-.5 28-8.2 35.8-20.5h4.7c-8.4 14.8-23.9 24.1-40.9 24.5h-3.3s.6 12.7.7 18.6h1.2C105 133.6 135 103.8 135 67 135 30 104.7 0 67.2.1zm34.5 46.8h7.2c.8-.1 1.5.4 1.6 1.2v2.8c.1.8-.4 1.5-1.2 1.6h-.4l1.6 4h-2.4l-1.6-4h-2.4v4h-2.4v-9.6zm6.4 23.2v1.6h-8.8v-1.6l5.6-6.3h-5.6v-1.6h8.8v1.6l-5.6 6.3h5.6zM91.2 48.5c-.1-.8.4-1.5 1.2-1.6h6c.8-.1 1.5.4 1.6 1.2v8.3h-2.4v-3.2h-4v3.2h-2.4v-7.9zm6.5 13.7v9.5h-2.4v-9.5h2.4zM80.8 46.9h8.8v1.6h-3.2v7.9H84v-7.9h-3.2v-1.6zm0 15.3h2.4v9.5h-2.4v-9.5zm-1.6 16.9H76V87h-2.4v-7.9h-3.2v-1.6h8.8v1.6zm0-15.3h-6.4v6.3h6.4v1.6H72c-.8.1-1.5-.4-1.6-1.2v-6.7c-.1-.8.4-1.5 1.2-1.6H79.2v1.6zm0-15.3h-6.4v2l4.8.8c.8-.1 1.5.4 1.6 1.2v2.4c.1.8-.4 1.5-1.2 1.6H70.4v-1.6h6.4v-2l-4.8-.8c-.8.1-1.5-.4-1.6-1.2v-2.4c-.1-.8.4-1.5 1.2-1.6H79.2v1.6zm10.1 36.9c.1.8-.4 1.5-1.2 1.6h-6c-.8.1-1.5-.4-1.6-1.2v-6.7c-.1-.8.4-1.5 1.2-1.6h6c.8-.1 1.5.4 1.6 1.2v6.7zm1.1-13.7H88v-7.9h-3.2v-1.6h8.8v1.6h-3.2v7.9zm9.4 13.7c.1.8-.4 1.5-1.2 1.6h-6c-.8.1-1.5-.4-1.6-1.2v-6.7c-.1-.8.4-1.5 1.2-1.6h6c.8-.1 1.5.5 1.5 1.3v.3l.1 6.3zm10.4 1.6H103c-.8.1-1.5-.4-1.6-1.2v-8.3h2.4v7.9h6.4V87zm-.5-16.9v-6.3c-.1-.8.4-1.5 1.2-1.6H118.5v1.6h-6.4v2.3h4.8v1.6h-4.8v2.4h6.4v1.6h-7.2c-.8.1-1.5-.4-1.6-1.2v-.4zm10.9 9h-6.4v2l4.8.8c.8-.1 1.5.4 1.6 1.2v2.4c.1.8-.4 1.5-1.2 1.6H111.8v-1.6h6.4v-2l-4.8-.8c-.8.1-1.5-.4-1.6-1.2v-2.4c-.1-.8.4-1.5 1.2-1.6H120.6v1.6zm5.2-7.4l-4-7.1v7.1h-1.6v-9.5h3.2l4 7.1v-7.1h1.6v9.5h-3.2z"/></svg>