<svg version="1.1" id="Layer_1" xmlns="http://www.w3.org/2000/svg" x="0" y="0" viewBox="0 0 135 135" xml:space="preserve"><style>.st0{fill:none}.st1{fill:#231f20}.st4{fill:#fff}</style><path class="st0" d="M104.1 52.5h2.4l1.6 4h2.4l-1.6-4h.4c.8-.1 1.3-.8 1.2-1.6v-2.4-.4c-.1-.8-.8-1.3-1.6-1.2h-7.2v9.6h2.4v-4zm0-4h4v2.4h-4v-2.4zM108.1 62.2h-8.8v1.6h5.6l-5.6 6.3v1.6h8.8v-1.6h-5.6l5.6-6.3zM48.1 94s2.8 7.9 3 8.5c.2.6 1.8.1 1.6-.5-.1-.3-2.8-7.7-3.1-8.5-.3-.8-1.8-.2-1.5.5zm3.6 6.6c.1.2.4 1.2.4 1.2.2.4-.5.5-.5.3 0 0-.4-1.1-.5-1.3-.1-.2.5-.4.6-.2zm-.3-.6c.2.4-.4.5-.5.3 0 0-.4-1.1-.5-1.3-.1-.2.5-.4.6-.2s.4 1.1.4 1.2zm-1-2.9c.1.2.4 1.2.5 1.3.1.3-.6.4-.6.2 0 0-.4-1.1-.5-1.3-.1-.2.5-.4.6-.2zm-.2-.5c.1.3-.4.4-.5.3 0 0-.5-1.2-.6-1.4-.1-.2.5-.4.6-.2.1.2.5 1.3.5 1.3zM49 95s-.4-1.2-.5-1.4c-.1-.2.5-.4.6-.2.1.2.5 1.3.5 1.4.1.2-.5.4-.6.2zM93.6 53.2h4v3.2h2.4v-7.9-.4c-.1-.8-.8-1.3-1.6-1.2h-6c-.8.1-1.3.8-1.2 1.6v7.9h2.4v-3.2zm.1-4.7h4v3.2h-4v-3.2zM80.8 62.2h2.4v9.5h-2.4zM95.3 62.2h2.4v9.5h-2.4zM70.4 79.1h3.2V87H76v-7.9h3.2v-1.6h-8.8zM84 56.4h2.4v-7.9h3.2v-1.6h-8.8v1.6H84z"/><circle class="st0" cx="48" cy="86.3" r=".8"/><path class="st0" d="M48 47.9c.4 0 .8-.3.8-.8 0-.4-.4-.8-.8-.8s-.8.4-.8.8.4.8.8.8zM53.6 109.2c-.5 0-.9.4-.9.9s.4.9.9.9.9-.4.9-.9-.4-.9-.9-.9zM20.3 89.4h2.4v.9h-2.4zM28.6 88.9c.7-.4 1.6-.6 2.4-.4.2.1.4.1.6.1.7-.1.6-.9-.1-1.2-.9-.1-1.8-.1-2.6.2-.7.3-1.4.7-2 1.1-.7.3-1.4.5-2.1.5v1c.8 0 1.6-.1 2.3-.4.2-.1 1-.5 1.5-.9zM51.1 31.1c-.2.6-3 8.5-3 8.5-.3.7 1.2 1.3 1.5.5.3-.7 3-8.2 3.1-8.5.2-.6-1.4-1.1-1.6-.5zm-1.5 7.6c0 .1-.4 1.2-.5 1.4-.1.2-.7 0-.6-.2.1-.2.5-1.4.5-1.4.1-.2.7 0 .6.2zm.1-.4c-.1.2-.7 0-.6-.2.1-.2.6-1.4.6-1.4.1-.2.6 0 .5.3 0 0-.4 1.1-.5 1.3zm1.2-3.2c-.1.1-.4 1.1-.5 1.3-.1.2-.7 0-.6-.2.1-.2.5-1.3.5-1.3 0-.2.7 0 .6.2zm.5-1.6c0 .1-.3 1-.4 1.2s-.7 0-.6-.2c.1-.2.5-1.3.5-1.3.1-.2.7-.1.5.3zm.7-1.8s-.3 1-.4 1.2c-.1.2-.7 0-.6-.2.1-.2.5-1.3.5-1.3 0-.2.7 0 .5.3zM38 88c.5 0 .8-.4.8-.8s-.4-.8-.8-.8-.8.4-.8.8.4.8.8.8zM16.4 90.3h1.8v-1h-1.1c-.5 0-.8-.2-.8-.2v-1.3h-.9v1.9c0 .5 1 .6 1 .6zM20.3 43.3h2.4v.9h-2.4zM127.4 62.2v7.1l-4-7.1h-3.2v9.5h1.6v-7.1l4 7.1h3.2v-9.5zM113 77.5c-.8.1-1.3.8-1.2 1.6v2.4c.1.8.8 1.3 1.6 1.2l4.8.8v2h-6.4v1.6H119.4c.8-.1 1.3-.8 1.2-1.6v-2-.4c-.1-.8-.8-1.3-1.6-1.2l-4.8-.8v-2h6.4v-1.6H113zM53.6 24.3c.5 0 .9-.4.9-.9s-.4-.9-.9-.9-.9.4-.9.9.4.9.9.9zM16.3 44.4c0-.2.2-.2.8-.2h1.1v-1h-1.8c-.3 0-1 .1-1 .6v1.9h.9v-1.3zM118.5 70.1h-6.4v-2.4h4.8v-1.6h-4.8v-2.3h6.4v-1.6H110.9c-.8.1-1.3.8-1.2 1.6v6.7c.1.8.8 1.3 1.6 1.2h7.2v-1.6zM71.6 62.2c-.8.1-1.3.8-1.2 1.6v6.7c.1.8.8 1.3 1.6 1.2h7.2v-1.6h-6.4v-6.3h6.4v-1.6H71.6zM103.8 77.5h-2.4v8.3c.1.8.8 1.3 1.6 1.2h7.2v-1.6h-6.4v-7.9z"/><circle class="st0" cx="38" cy="46.3" r=".8"/><path class="st0" d="M71.6 46.9c-.8.1-1.3.8-1.2 1.6v2.4c.1.8.8 1.3 1.6 1.2l4.8.8v2h-6.4v1.6H78c.8-.1 1.3-.8 1.2-1.6v-2-.4c-.1-.8-.8-1.3-1.6-1.2l-4.8-.8v-2h6.4v-1.6H71.6zM87.7 77.5h-6c-.8.1-1.3.8-1.2 1.6v6.7c.1.8.8 1.3 1.6 1.2h6c.8-.1 1.3-.8 1.2-1.6v-6.3-.4c-.1-.8-.8-1.3-1.6-1.2zm-.8 7.9h-4v-6.3h4v6.3zM28.9 45.8c.8.3 1.7.3 2.6.1.7-.1.8-.9.1-1.1-.2 0-.4 0-.6.1-.8.2-1.7 0-2.4-.4-.5-.3-1.3-.8-1.5-.9-.8-.2-1.5-.4-2.3-.4v1c.8 0 1.5.2 2.1.5.6.4 1.3.8 2 1.1zM99.7 78.8c0-.8-.7-1.4-1.5-1.3h-6c-.8.1-1.3.8-1.2 1.6v6.7c.1.8.8 1.3 1.6 1.2h6c.8-.1 1.3-.8 1.2-1.6l-.1-6.3v-.3zm-2.4 6.6h-4v-6.3h4v6.3zM93.6 62.2h-8.8v1.6H88v7.9h2.4v-7.9h3.2z"/><path class="st1" d="M12.8 53.4l3.6-3.6-2-2h-3.5l-2.6 2v1.5l2.1 2.1h2.4zm-3.4-2.9c0-.3.3-.6.6-.6s.6.3.6.6-.3.6-.6.6-.6-.3-.6-.6zM39.7 43.9h2.2v-4.3H40v.1c.4.8.6 1.7.5 2.6l-.8 1.6zM58.5 47.7l-.2-.5-.8-.8c-.5-.5-1.2-1.1-1.7-1.6a5.23 5.23 0 01-1-5.1c.5-1.2 2.9-9.1 3.5-11l-7.9-2.3-.2.8c0 .1 0 .1.2.3.2.2.3.5.3.8-.1.7-1.1 1.2-1.6 1.3-.2.1-.5.2-.6.5-.1.3-.1.7.1 1V31 31.3l-.1.1c-.2.3-1.2 3-1.6 4l-.3.8c-.1.3-.2.5-.3.7-.6 1.8-2.9 1.8-3 1.8h-.4c-.1 0-.1 0-.2-.1V44H44c.5 0 1.1.1 1.6.2l4.5 1.3c.6 0 2.4 0 2.9.1.7.1 1.3.5 1.8.9s.7 1.1.7 1.7c0 .4.4.6.9.6h1.2l.9-1.1zm-8.9-7.6c-.3.8-1.8.2-1.5-.5 0 0 2.8-7.9 3-8.5.2-.6 1.8-.1 1.6.5-.1.3-2.8 7.8-3.1 8.5z"/><circle class="st1" cx="10" cy="50.5" r=".6"/><path class="st1" d="M49 38.5s-.4 1.2-.5 1.4c-.1.2.5.4.6.2.1-.2.5-1.3.5-1.4.1-.2-.5-.4-.6-.2zM49.7 36.7s-.5 1.2-.6 1.4c-.1.2.5.4.6.2.1-.2.5-1.3.5-1.3.1-.3-.4-.5-.5-.3zM50.3 34.9s-.4 1.1-.5 1.3c-.1.2.5.4.6.2.1-.2.4-1.2.5-1.3.1-.2-.6-.4-.6-.2zM14.9 41.9c.3 0 .6-.1.8-.3.2-.1 1.3-.8 1.4-1 .2-.2.5-.3.8-.3h1.9l1.1-.9c1-.8 4.2-3.8 4.6-4.2.7-1.2 1.3-2.5 1.9-3.8v-.1l.3-.5v-.1c.1-.1.2-.2.3-.2h.6l2.2-1.8v-.1c0-.3.2-.5.4-.6.1-.1.3-.1.4-.1h.2l1.7-1.6c.4-.2.5-.8.3-1.1l-.1-.1c-.1-.1 0-.3.1-.3l.1-.1 2.6-2.4.1-.1c.1 0 .1-.1.2-.1h.1L50 25.5l8.7 2.7L62 27c.3-1 .9-3.1 1-3.6v-.1c.1-.2.2-.5.1-.5 0 0-.1-.1-.3-.2-.8-.2-9.6-2.2-10.2-2.3-.3 0-.5.2-.6.4 0 .1-.1.3-.1.4-.2.8-.4 1.9-1.4 1.9-.1 0-.3 0-.4-.1l-12.9-4.8-5.1 4.6c-.1 0-.1.1-.2.1s-.7-.5-.9-.3l-.6.6-1.4 1.4c.1.3 0 .6-.2.8s-.6.3-.8.1l-2.4 2.2c-.2.2.2.7 0 1-.2.3-.6.2-.7.3-.1 0-2.5 2.1-2.5 2.2l-.8.1c-.3.2-2.6 2.4-2.8 2.5-.2.1-.6.5-.4 1 .1.3.2.4 0 .6 0 0-1.5 1.3-2.1 2-.3.3-.1 1-.6 1.4-.4.4-1.5 1.3-1.6 1.4-.5.5-.5.7-.2 1.1.4.5.7.7 1 .7zm38.7-19.4c.5 0 .9.4.9.9s-.4.9-.9.9-.9-.4-.9-.9.4-.9.9-.9z"/><path class="st1" d="M50.9 33.2s-.4 1.1-.5 1.3c-.1.2.5.4.6.2s.4-1.1.4-1.2c.2-.4-.4-.5-.5-.3zM51.6 31.4s-.4 1.1-.5 1.3c-.1.2.5.4.6.2.1-.2.4-1.2.4-1.2.2-.3-.5-.5-.5-.3zM9.8 56.9c.1 0 .1-.1.1-.1v-3.1l-.8-.8-.1 4.2.8-.2zM12.1 46.7l-.5.5h2.6c.2 0 .3.1.5.2l1.6 1.5.4.4c0-.1.1-.2.1-.3v-.6c0-.6.5-1 1.1-1h2.7c.3 0 .4-.2.6-.6 0-.1.1-.1.1-.2.2-.4.7-.7 1.1-.6h4.8l2.7 1.3 5.7.1c.4 0 0 1.3 1.8 1.3h11c.3 0 .6-.2.7-.6.2-.4.6-.6 1-.6h1.1l.1 1.9V52.7h.5c.4 0 .5 0 1.1-.6.6-.6 2.2-2.3 2.3-2.5.1-.1.1-.1.1-.2.1-.2 0-.3-.1-.4-.4-.1-.4-.6-.4-.8-.2-1.1-1.1-1.9-2.2-2-.5-.1-2.8-.1-2.8-.1l-3.3-1-1.3-.4c-.4-.1-.9-.2-1.3-.2h-7.3c-.8-.4-1.3-1.3-1.1-2.2-.2-.1-.5-.3-.5-.7h-.5v-.1c-.1-.4-.4-.7-.8-.7h-.3v-.1c-.1-.3 0-1.2-.7-1.2h-.2l-.1-.1-.1-.1c-.1-.2-.2-.3-.8-.3h-3.3s-.8 0-.8.5v.3h-6.2l-1.2 1h-2c-.2 0-.4 0-.6.1-.2.2-1.6 1.1-1.6 1.1-.3.2-.6.3-.9.3h-.2c-1.1-.1-1.3-1-1.8-1-.2 0-.3.2-.4.4-.3.6-.5 1.2-.7 1.9-.1.4-.3 1.9-.4 2.5h.7v.6zm35.9-.4c.4 0 .8.4.8.8 0 .5-.4.8-.8.8s-.8-.4-.8-.8.4-.8.8-.8zm-10-.8c.4 0 .8.4.8.8s-.4.8-.8.8-.8-.4-.8-.8.4-.8.8-.8zm-13.2-2.3c.8 0 1.5.2 2.3.4.2.1 1 .6 1.5.9.7.4 1.6.6 2.4.4.2-.1.4-.1.6-.1.7.2.6 1-.1 1.1-.9.2-1.8.2-2.6-.1-.7-.3-1.4-.7-2-1.1-.6-.3-1.3-.5-2.1-.5v-1zm-4.5.1h2.4v.9h-2.4v-.9zm-4.9.5c0-.5.7-.6 1-.6h1.8v1h-1.1c-.6 0-.8 0-.8.2v1.3h-.9v-1.9z"/><path class="st1" d="M45.1 55.7h5.5c.1 0 .2-.1.2-.2v-1.3H53l4-4.8h-1c0 .1-.1.3-.1.4-.1.1-1.6 1.9-2.2 2.5-.6.5-.9.9-1.7.9h-.4c-.5 0-.8-.2-.8-.6v-2.9-.4l-.1-1.3h-.5c-.2 0-.3.1-.4.3-.2.5-.7.9-1.3.9h-11c-2 0-2-1.3-2.2-1.3l-5.4-.1c-.1 0-2.8-1.3-2.8-1.3h-4.6c-.4 0-.5.1-.6.3v.1l-.1.1c-.2.3-.5 1-1.2 1H18s-.6 0-.5.5c0 .8-.1 1.1-.4 1.5l-4.2 4.2c-.2.1-.2.2-.3.4v.3c0 .1 0 .2.1.3 0 0 .1.2.5.8l.1.2v.2c0 .1 0 .1-.1.1h-.6c-.1 0-.2 0-.2.3v.1c0 .3.1.3.2.3h1.2l.1.1.4.6h8.4l2.8-3.2h4.4v-.5h2.7v.9h11.7v-.9h.6v1.3c0 .1.1.2.2.2zM16.4 83.7l-3.6-3.6h-2.4l-2.1 2.1v1.5l2.6 2h3.5l2-2zm-6.4-.1c-.3 0-.6-.3-.6-.6s.3-.6.6-.6.6.3.6.6c0 .4-.3.6-.6.6zM56.3 84.7c-.6 0-.9.2-.9.6 0 .6-.3 1.2-.7 1.7-.5.5-1.1.8-1.8.9-.5.1-2.3 0-2.9.1l-4.5 1.4c-.5.2-1 .3-1.6.2h-1.2v5.3c.1 0 .1-.1.2-.1h.4c.1 0 2.3 0 3 1.8.1.2.2.5.3.7l.3.8c.4 1 1.4 3.8 1.6 4l.1.1v.4c-.2.3-.2.7-.1 1 .1.2.3.4.6.5.5.2 1.6.6 1.6 1.3 0 .3-.1.6-.3.8-.1.2-.2.2-.2.3l.2.8 7.9-2.4c-.6-1.9-3.1-9.7-3.5-11-.6-1.8-.2-3.7 1-5.1.5-.5 1.2-1.1 1.7-1.6l.8-.8.1-.5-.9-1.1v-.1h-1.2zm-5.2 17.8c-.2-.6-3-8.5-3-8.5-.3-.7 1.2-1.3 1.5-.5.3.8 3 8.2 3.1 8.5.2.6-1.4 1.1-1.6.5zM41.9 93.9v-4.3h-2.2l.8 1.6c.1.9-.1 1.8-.5 2.6l1.9.1z"/><circle class="st1" cx="10" cy="83" r=".6"/><path class="st1" d="M62 106.4l-3.3-1.2-8.7 2.7-13.1 3.7h-.1c-.1 0-.1 0-.2-.1l-.1-.1-2.6-2.4-.1-.1c-.1-.1-.1-.2-.1-.3l.1-.1c.2-.4.1-.9-.3-1.1l-1.7-1.6h-.2c-.2 0-.3 0-.4-.1-.2-.1-.4-.4-.4-.6v-.1l-2.2-1.8H28c-.1 0-.2-.1-.3-.2v-.1l-.2-.5v-.1c-.6-1.3-1.2-2.6-1.9-3.8-.4-.4-3.6-3.3-4.6-4.2l-1.1-.9H18c-.3 0-.6-.1-.8-.3-.2-.1-1.3-.8-1.4-1-.3-.2-.5-.3-.8-.3s-.6.2-1 .7c-.3.4-.3.6.2 1.1.1.1 1.1.9 1.6 1.4s.3 1.1.6 1.4c.6.6 2.1 2 2.1 2 .2.2.1.3 0 .6-.2.5.3.8.4 1 .1.1 2.5 2.3 2.8 2.5l.8.1 2.5 2.2s.5 0 .7.3-.2.8 0 1l2.4 2.2c.3-.1.6-.1.8.1.2.2.3.5.2.8l1.4 1.3.6.6c.2.2.8-.3.9-.3s.1 0 .2.1l5.1 4.6 12.9-4.8c.1 0 .3-.1.4-.1 1 0 1.3 1.2 1.4 1.9 0 .1.1.3.1.4 0 .3.3.5.6.4.5-.1 9.3-2 10.2-2.3.3-.1.3-.2.3-.2 0-.1 0-.5-.2-.7-.2-.6-.8-2.7-1-3.7zm-8.4 4.6c-.5 0-.9-.4-.9-.9s.4-.9.9-.9.9.4.9.9-.4.9-.9.9zM49.1 95.5c.1.2.6 1.4.6 1.4.1.1.6 0 .5-.3 0 0-.4-1.1-.5-1.3-.1-.2-.7 0-.6.2zM49.8 97.3c.1.2.5 1.3.5 1.3 0 .2.7.1.6-.2-.1-.1-.4-1.1-.5-1.3-.1-.2-.7 0-.6.2zM9.9 76.7s0-.1-.1-.1l-.8-.2.1 4.2.8-.8v-3.1zM49.1 93.4c-.1-.2-.7 0-.6.2.1.2.5 1.4.5 1.4.1.2.7 0 .6-.2 0-.1-.4-1.2-.5-1.4z"/><path class="st1" d="M50.4 99c.1.2.5 1.3.5 1.3.1.2.7.1.5-.3 0-.1-.3-1-.4-1.2s-.7 0-.6.2zM51.1 100.8c.1.2.5 1.3.5 1.3 0 .2.7.1.5-.3 0 0-.3-1-.4-1.2-.1-.2-.7 0-.6.2zM14.8 91.3c.3 0 .7.1.9.3 0 0 1.4.9 1.6 1.1.2.1.4.1.6.1H20l1.2 1h6.1v.2c.1.5.8.5.8.5h3.2c.6 0 .6-.1.8-.3l.1-.1.1-.1h.2c.7 0 .7-.9.7-1.2v-.1h.3c.4 0 .8-.3.8-.7v-.1h.5c0-.3.3-.6.6-.7-.2-.9.3-1.8 1.1-2.2h7.3c.5 0 .9-.1 1.3-.2l1.3-.4 3.3-1s2.3 0 2.8-.1c1.1-.1 2.1-1 2.2-2.1 0-.2 0-.7.4-.8.2 0 .3-.2.3-.3.1 0 .1-.1 0-.2-.1-.2-1.7-1.9-2.3-2.5-.7-.6-.7-.5-1.1-.6h-.5V84.1l-.1 2h-1.1c-.4 0-.8-.2-1-.6-.1-.3-.4-.5-.7-.6h-11c-1.8 0-1.4 1.3-1.8 1.3l-5.8.1-2.7 1.3h-4.8c-.5.1-.9-.2-1.1-.6 0-.1-.1-.1-.1-.2-.2-.4-.4-.6-.6-.6H18c-.6.1-1.1-.3-1.2-.9v-.7c0-.1 0-.2-.1-.3l-.4.4-1.6 1.5c-.1.1-.3.2-.5.2h-2.7l.5.5v.6h-.7c.1.6.3 2.1.4 2.5.2.6.4 1.2.7 1.9.1.2.2.4.4.4.5.1.7-.8 1.8-1h.2zM48 85.5c.4 0 .8.4.8.8 0 .5-.4.8-.8.8s-.8-.4-.8-.8.4-.8.8-.8zm-10 .9c.4 0 .8.4.8.8s-.3.8-.8.8c-.4 0-.8-.4-.8-.8s.4-.8.8-.8zm-13.2 2.8c.7 0 1.4-.2 2.1-.5.6-.4 1.3-.8 2-1.1.8-.3 1.7-.3 2.6-.2.7.3.8 1.1.1 1.2-.2 0-.4 0-.6-.1-.8-.2-1.7 0-2.4.4-.5.4-1.3.8-1.5.9-.7.3-1.5.4-2.3.4v-1zm-4.5.2h2.4v.9h-2.4v-.9zm-4.9-1.6h.9v1.3s.3.2.8.2h1.1v1h-1.8s-1-.1-1-.6v-1.9zM82.9 79.1h4v6.3h-4zM104.1 48.5h4v2.4h-4zM93.3 79.1h4v6.3h-4z"/><path class="st1" d="M25.5 78.8l-2.8-3.2h-8.4l-.4.6-.1.1h-1.2c-.1 0-.2 0-.2.3v.1c0 .3.1.3.2.3h.6c.1 0 .1 0 .1.1v.2l-.2.3c-.4.6-.5.8-.5.8-.1.1-.1.2-.1.3v.3c.1.2.1.3.3.4l4.2 4.2c.3.4.4.7.4 1.5 0 .4.6.4.6.4h2.6c.7 0 1 .7 1.2 1l.1.1v.1c.1.2.1.3.6.3h4.6s2.7-1.3 2.8-1.3l5.5-.1c.2 0 .2-1.3 2.2-1.3h11c.6 0 1.1.4 1.3.9.1.2.2.3.4.3h.5l.1-1.3v-.3-3c0-.4.3-.6.8-.6h.3c.8 0 1.1.4 1.7.9.6.5 2.1 2.4 2.2 2.5 0 .1.1.3.1.4h1l-4-4.8h-2.2V78c0-.1-.1-.2-.2-.2h-5.5c-.1 0-.2.1-.2.2v1.3h-.6v-.9H32.6v.9h-2.7v-.5h-4.4zM93.7 48.5h4v3.2h-4z"/><path class="st1" d="M135 67C135 30 104.7 0 67.2.1H67c-.2 7.9-1 20-1 19.9.4 0 1.4-.1 1.9-.1H69c16.5.4 31.7 9.1 40.3 23.2h-4.8c-8-11.6-21-18.7-35.1-19.2h-1.5s-1.7.1-2.2.1c0-.2-3.6 22.9-6.3 28.3C52.3 66.8 14.6 65.5 0 67.7c14.2 1.1 45.9-.7 55.4 9.2 2.4 2.1 4.5 7.7 6.1 13.8h69.1c2.8-7.4 4.4-15.3 4.4-23.7zm-33.3-20.1h7.2c.8-.1 1.5.4 1.6 1.2v2.8c.1.8-.4 1.5-1.2 1.6h-.4l1.6 4h-2.4l-1.6-4h-2.4v4h-2.4v-9.6zm6.4 23.2v1.6h-8.8v-1.6l5.6-6.3h-5.6v-1.6h8.8v1.6l-5.6 6.3h5.6zM91.2 48.5c-.1-.8.4-1.5 1.2-1.6h6c.8-.1 1.5.4 1.6 1.2v8.3h-2.4v-3.2h-4v3.2h-2.4v-7.9zm6.5 13.7v9.5h-2.4v-9.5h2.4zM80.8 46.9h8.8v1.6h-3.2v7.9H84v-7.9h-3.2v-1.6zm0 15.3h2.4v9.5h-2.4v-9.5zm-1.6 16.9H76V87h-2.4v-7.9h-3.2v-1.6h8.8v1.6zm0-15.3h-6.4v6.3h6.4v1.6H72c-.8.1-1.5-.4-1.6-1.2v-6.7c-.1-.8.4-1.5 1.2-1.6H79.2v1.6zm0-15.3h-6.4v2l4.8.8c.8-.1 1.5.4 1.6 1.2v2.4c.1.8-.4 1.5-1.2 1.6H70.4v-1.6h6.4v-2l-4.8-.8c-.8.1-1.5-.4-1.6-1.2v-2.4c-.1-.8.4-1.5 1.2-1.6H79.2v1.6zm10.1 30.6v6.3c.1.8-.4 1.5-1.2 1.6h-6c-.8.1-1.5-.4-1.6-1.2v-6.7c-.1-.8.4-1.5 1.2-1.6h6c.8-.1 1.5.4 1.6 1.2v.4zm1.1-7.4H88v-7.9h-3.2v-1.6h8.8v1.6h-3.2v7.9zM98.6 87h-6c-.8.1-1.5-.4-1.6-1.2v-6.7c-.1-.8.4-1.5 1.2-1.6h6c.8-.1 1.5.5 1.5 1.3v.3l.1 6.3c.1.8-.4 1.5-1.2 1.6zm11.6 0H103c-.8.1-1.5-.4-1.6-1.2v-8.3h2.4v7.9h6.4V87zm-.5-16.5v-6.7c-.1-.8.4-1.5 1.2-1.6H118.5v1.6h-6.4v2.3h4.8v1.6h-4.8v2.4h6.4v1.6h-7.2c-.8.1-1.5-.4-1.6-1.2zm10.9 8.6h-6.4v2l4.8.8c.8-.1 1.5.4 1.6 1.2v2.4c.1.8-.4 1.5-1.2 1.6H111.8v-1.6h6.4v-2l-4.8-.8c-.8.1-1.5-.4-1.6-1.2v-2.4c-.1-.8.4-1.5 1.2-1.6H120.6v1.6zm5.2-7.4l-4-7.1v7.1h-1.6v-9.5h3.2l4 7.1v-7.1h1.6v9.5h-3.2zM65.6 111.2c.6 0 1.7.1 2.3.1h1.7c6.4-.2 12.6-1.8 18.1-4.6H64.9c.5 2.8.7 4.6.7 4.5zM69.2 115.3h-3.3s.6 12.7.7 18.6h1.2c22.2-.2 41.8-10.8 54-27.2H95.6c-7.7 5.3-16.8 8.4-26.4 8.6z"/><path d="M61.5 90.7c1.5 5.8 2.7 11.9 3.4 16h56.9c3.6-4.9 6.6-10.2 8.8-16H61.5z" fill="#d33"/><g><path class="st4" d="M79.1 102.5v-7.6h5.8c.4 0 .7.1 1 .4s.4.6.4 1v1.8c0 .1 0 .2-.1.2.1.2.2.3.3.5.1.2.1.3.1.5v1.6c0 .4-.1.7-.4 1-.3.3-.6.4-1 .4h-6.1zm1.8-4.5h4v-1.2-.3h-4.3V98c0-.1.1 0 .3 0zm0 3.1h4.3v-1.3-.3h-4.6v1.6h.3zM88.4 102.5v-7.6h7v1.4h-5.6V98h4.5v1.4h-4.5v1.7h5.6v1.4h-7zM99.6 102.5v-6.2h-3.1v-1.4h7.6v1.4H101v6.2h-1.4zM105.4 102.5v-6.1c0-.4.1-.7.4-1s.6-.4 1-.4h4.6c.4 0 .8.1 1 .4s.4.6.4 1v6.1h-1.4V100h-4.8v2.5h-1.2zm1.4-3.9h4.8v-1.9-.3H107V98.6z"/></g></svg>