<?xml version="1.0" encoding="UTF-8"?>
<!DOCTYPE svg  PUBLIC '-//W3C//DTD SVG 1.1//EN'  'http://www.w3.org/Graphics/SVG/1.1/DTD/svg11.dtd'>
<svg enable-background="new 0 0 160 160" version="1.1" viewBox="0 0 160 160" xml:space="preserve" xmlns="http://www.w3.org/2000/svg">
				<path d="m13.177 57.315c-0.025 1e-3 -0.086 0.022-0.106 0.036l-3.036 2.391c-4e-3 5e-3 -0.01 0.013-0.012 0.021v1.688c2e-3 0.011 0.018 0.048 0.026 0.061l2.417 2.437c8e-3 5e-3 0.04 0.018 0.056 0.021h2.742l4.3-4.298-2.407-2.333c-8e-3 -6e-3 -0.044-0.019-0.061-0.023h-3.919z" fill="#231F20"/>
				<path d="m12.073 59.818c-0.411 0-0.743 0.331-0.743 0.733 0 0.406 0.332 0.734 0.743 0.734 0.407 0 0.74-0.329 0.74-0.734 0-0.402-0.333-0.733-0.74-0.733z" fill="#231F20"/>
				<path d="m47.515 47.766c0.695 0.93 0.593 3.004 0.587 3.093l-2e-3 0.035-0.907 1.941 2.596-2e-3v-5.067h-2.274z" fill="#231F20"/>
				<path d="m69.136 56.606c-6e-3 -0.01-0.017-0.023-0.022-0.031-0.115-0.118-0.51-0.49-1.01-0.96-0.606-0.57-1.359-1.277-1.995-1.896-1.389-1.35-1.931-4.024-1.209-5.959 0.544-1.456 3.466-10.742 4.161-12.951l-9.353-2.859-0.294 0.9-4e-3 9e-3c-0.015 0.066 0.03 0.138 0.189 0.34l0.024 0.028c0.165 0.213 0.395 0.499 0.364 0.898-0.061 0.858-1.349 1.385-1.9 1.573-0.341 0.117-0.568 0.301-0.678 0.543-0.133 0.303-0.099 0.711 0.105 1.188l0.029 0.065c0.041 0.096 0.037 0.207-0.012 0.299l-0.07 0.138c-6e-3 7e-3 -0.012 0.018-0.017 0.027-0.191 0.296-1.415 3.551-1.878 4.776-0.125 0.339-0.246 0.653-0.352 0.934-0.121 0.312-0.245 0.637-0.324 0.856-0.762 2.078-3.396 2.103-3.506 2.103h-0.459c-0.091 0-0.174-0.034-0.24-0.089v6.295s1.423-7e-3 1.494-7e-3c1.012 0 1.52 0.166 1.854 0.275 0.02 8e-3 5.268 1.585 5.268 1.585 0.717 0.041 2.87-0.03 3.414 0.066 0.801 0.144 1.669 0.67 2.087 1.088 0.502 0.504 0.847 1.158 0.86 2.04 8e-3 0.442 0.422 0.669 1.079 0.649h1.444l1.086-1.292-0.135-0.631zm-10.261-8.396c-0.353 0.889-2.135 0.222-1.805-0.609 0 0 3.347-9.336 3.584-10.071 0.225-0.694 2.085-0.06 1.845 0.609-0.12 0.445-3.3 9.256-3.624 10.071z" fill="#231F20"/>
					<path d="m58.185 46.357s-0.528 1.417-0.613 1.661c-0.076 0.219 0.599 0.456 0.682 0.226 0.089-0.208 0.576-1.484 0.613-1.597 0.094-0.274-0.585-0.504-0.682-0.29z" fill="#3F3F3F"/>
					<path d="m58.983 44.211s-0.556 1.396-0.645 1.639c-0.077 0.208 0.629 0.454 0.705 0.238 0.091-0.211 0.547-1.485 0.585-1.594 0.109-0.279-0.576-0.468-0.645-0.283z" fill="#231F20"/>
					<path d="m59.693 42.142s-0.524 1.307-0.608 1.551c-0.081 0.244 0.616 0.489 0.705 0.239 0.091-0.208 0.51-1.396 0.548-1.505 0.157-0.344-0.601-0.523-0.645-0.285z" fill="#231F20"/>
					<path d="m60.435 40.085s-0.5 1.255-0.583 1.497c-0.083 0.245 0.615 0.491 0.707 0.239 0.087-0.207 0.484-1.344 0.522-1.452 0.158-0.343-0.6-0.521-0.646-0.284z" fill="#231F20"/>
					<path d="m61.167 37.997s-0.502 1.27-0.583 1.515c-0.084 0.245 0.613 0.489 0.704 0.237 0.089-0.206 0.487-1.36 0.525-1.472 0.155-0.34-0.601-0.518-0.646-0.28z" fill="#231F20"/>
				<path d="m74.844 27.787c-0.018-0.029-0.09-0.122-0.409-0.215-1.021-0.293-11.378-2.555-11.995-2.691-0.01 0-0.02-1e-3 -0.032-1e-3 -0.373 0-0.593 0.17-0.677 0.526-0.034 0.145-0.066 0.3-0.101 0.468-0.184 0.916-0.466 2.304-1.67 2.304-0.152 0-0.312-0.026-0.474-0.071l-0.025-7e-3 -15.216-5.668-5.987 5.423c-0.066 0.06-0.151 0.092-0.242 0.092-0.056 0-0.813-0.612-1.086-0.368-0.413 0.368-0.716 0.638-0.724 0.646l-1.714 1.593c0.073 0.36-0.016 0.691-0.254 0.929-0.182 0.181-0.616 0.353-0.983 0.148l-2.881 2.586c-0.284 0.282 0.258 0.813-0.018 1.177-0.276 0.36-0.761 0.271-0.816 0.322 0 0-2.899 2.525-2.945 2.538l-0.926 0.124c-0.311 0.272-3.058 2.779-3.32 2.998-0.145 0.118-0.728 0.608-0.534 1.16 0.109 0.319 0.232 0.476 0.031 0.655 0 0-1.795 1.58-2.532 2.333-0.357 0.37-0.159 1.187-0.672 1.623-0.601 0.506-1.779 1.473-1.94 1.595-0.575 0.559-0.545 0.786-0.218 1.259 0.5 0.606 0.82 0.866 1.145 0.866 0.379 0 0.938-0.333 0.986-0.362 0.233-0.133 1.512-0.998 1.713-1.154 0.309-0.245 0.551-0.323 1.006-0.323 0.073 0 0.157 3e-3 0.252 7e-3 0.138 5e-3 0.367 7e-3 0.68 7e-3 0.512 0 1.114-7e-3 1.366-0.011l1.301-1.11 0.042-0.04c1.159-1.048 4.974-4.501 5.447-4.968 0.31-0.308 1.675-3.238 2.26-4.488l0.044-0.098c0.101-0.214 0.193-0.411 0.276-0.586l0.048-0.1c0.059-0.126 0.186-0.209 0.325-0.209h0.752l2.65-2.12c0-0.039 0-0.082 4e-3 -0.124 0.03-0.296 0.195-0.561 0.449-0.729 0.157-0.1 0.327-0.151 0.507-0.151 0.078 0 0.152 8e-3 0.228 0.025l1.97-1.869c0.468-0.416 0.56-0.822 0.312-1.349l-0.057-0.119c-0.064-0.14-0.032-0.307 0.084-0.411l0.097-0.089c1.734-1.579 3.115-2.835 3.115-2.835l0.074-0.066c0.066-0.061 0.153-0.093 0.244-0.093 0.034 0 0.066 4e-3 0.099 0.013l15.47 4.315 10.251 3.135 3.843-1.358c0.332-1.152 1.054-3.673 1.231-4.273l0.021-0.072c0.083-0.278 0.188-0.625 0.125-0.739zm-11.245 1.819c-0.608 0-1.103-0.489-1.103-1.09 0-0.598 0.494-1.089 1.103-1.089 0.607 0 1.103 0.491 1.103 1.089 0 0.601-0.495 1.09-1.103 1.09z" fill="#231F20"/>
				<path d="m10.887 68.333l0.894-0.217c0.087-0.037 0.087-0.112 0.087-0.159v-3.675l-0.98-0.985v5.036z" fill="#231F20"/>
				<path d="m65.454 58.804c-0.483-0.109-0.485-0.741-0.491-0.937-0.038-1.353-1.405-2.267-2.553-2.411-0.588-0.075-3.263-0.064-3.287-0.066l-3.879-1.171c-0.012-5e-3 -1.427-0.429-1.489-0.451-0.282-0.092-0.706-0.23-1.572-0.23-0.066 0-2.941 1e-3 -4.103-6e-3 0 0-2.534-0.017-3.485-0.017 0 0-0.798 2e-3 -0.822 2e-3 -0.083 0-0.155-0.013-0.212-0.039-1.149-0.535-1.373-1.538-1.25-2.613-0.485-0.197-0.627-0.477-0.718-0.858-0.129 7e-3 -0.639-0.01-0.639-0.01l-0.026-0.165c-6e-3 -0.028-0.137-0.728-1.008-0.787l-0.296-0.014-0.021-0.143c-0.057-0.356-8e-3 -1.439-0.835-1.408l-0.185-0.013-0.097-0.146c-0.035-0.055-0.065-0.108-0.096-0.159-0.127-0.218-0.189-0.328-0.891-0.347-0.04-1e-3 -0.256-1e-3 -1.057-1e-3 -0.989 0-2.719 1e-3 -2.719 1e-3 -0.01 0-0.952 0.012-1.044 0.643l-0.043 0.306h-7.219l-1.447 1.235s-2.271 0.014-2.423 7e-3c-0.081-2e-3 -0.532 0.022-0.659 0.122-0.236 0.187-1.903 1.28-1.945 1.304-0.235 0.147-0.528 0.33-1.097 0.394-0.064 7e-3 -0.129 0.017-0.191 0.011-1.343-0.11-1.578-1.214-2.141-1.155-0.248 0.026-0.407 0.291-0.5 0.505-0.095 0.214-0.699 1.702-0.805 2.187-0.097 0.451-0.4 2.25-0.474 2.929 0.18 0.013 0.409 0.022 0.665 0.022h0.212l-0.014 0.19c-0.015 0.208-0.039 0.389-0.041 0.391l-0.014 0.111-0.576 0.583h3.137c0.191 0 0.423 0.092 0.562 0.225l1.857 1.797 0.5 0.48c0.042-0.091 0.084-0.212 0.092-0.358 3e-3 -0.065 5e-3 -0.123 9e-3 -0.175 0.01-0.155 0.02-0.268 0.021-0.49 7e-3 -0.819 0.712-1.188 1.405-1.188h3.063c0.316 0 0.51-0.271 0.735-0.744 0.04-0.085 0.075-0.162 0.113-0.222l0.032-0.05c0.161-0.268 0.429-0.708 1.354-0.708h5.658l3.211 1.526c0.797 8e-3 6.398 0.058 6.728 0.058 0.461 0-0.039 1.53 2.124 1.53l13.032 1e-3c0.48 0 0.744-0.357 0.883-0.654 0.216-0.47 0.634-0.74 1.149-0.74h1.305l0.106 2.308v3.672c4e-3 0.072 6e-3 0.159 0.018 0.182 1e-3 0 0.557 0.021 0.557 0.021 0.492-0.016 0.642-0.022 1.32-0.656 0.772-0.72 2.627-2.762 2.766-2.947 0.066-0.086 0.093-0.174 0.077-0.26-0.019-0.129-0.097-0.354-0.327-0.404zm-43.675-5.724s-0.866-0.01-1.273 0c-0.684 0.014-0.979 0.014-0.979 0.267 0 0.251-9e-3 1.561-9e-3 1.561h-1.08v-2.222c-2e-3 -0.593 0.881-0.683 1.211-0.694 0.331-0.013 2.131 0 2.131 0v1.088zm5.284 0h-2.845v-1.094h2.845v1.094zm10.492 2.069c-1.576 0.262-2.286 0.06-3.086-0.178-0.657-0.196-1.428-0.731-2.335-1.306-0.905-0.576-2.181-0.576-2.427-0.576v-1.148c0.266 0 1.675 0.069 2.661 0.521 0.229 0.122 1.219 0.698 1.817 1.115 0.6 0.417 2.021 0.768 2.824 0.457 0.149-0.057 0.367-0.158 0.653-0.121 0.717 0.14 0.677 1.087-0.107 1.236zm7.632 1.355c-0.51 0-0.926-0.41-0.926-0.914 0-0.507 0.416-0.917 0.926-0.917 0.512 0 0.929 0.41 0.929 0.917 0 0.504-0.417 0.914-0.929 0.914zm11.752 1.008c-0.51 0-0.927-0.41-0.927-0.916s0.417-0.914 0.927-0.914c0.512 0 0.926 0.408 0.926 0.914s-0.414 0.916-0.926 0.916z" fill="#231F20"/>
				<path d="m35.543 57.672" fill="#F47621"/>
				<path d="m38.016 27.946" fill="#3F3F3F"/>
		<path d="m67.589 59.243l-4.776 5.664h-2.578v1.507c0 0.152-0.082 0.278-0.18 0.278h-6.526c-0.098 0-0.18-0.126-0.18-0.278v-1.507h-0.72v1.073h-13.886v-1.073h-3.188v0.627h-5.215l-3.279 3.73h-9.87c-0.014-0.025-0.439-0.758-0.439-0.758-0.032-0.054-0.089-0.086-0.151-0.086h-1.443c-0.064 0-0.181 0-0.181-0.355v-0.056c0-0.356 0.116-0.356 0.181-0.356h0.746c0.064 0 0.125-0.034 0.157-0.09s0.03-0.124-4e-3 -0.179l-0.222-0.356c-0.464-0.756-0.57-0.943-0.591-0.986-0.028-0.058-0.117-0.251-0.157-0.386-0.026-0.091-0.028-0.183-0.01-0.31 0-3e-3 0.044-0.206 0.296-0.492 0.061-0.069 4.889-4.893 5.01-5.021l-4e-3 0.014c0.405-0.458 0.468-0.785 0.489-1.755 7e-3 -0.481 0.678-0.487 0.686-0.487h3.063c0.834 0 1.207-0.779 1.387-1.156 0.03-0.059 0.059-0.12 0.074-0.146 0.011-0.021 0.026-0.04 0.04-0.066 0.123-0.2 0.218-0.358 0.734-0.358h5.469s3.224 1.524 3.254 1.524c0 0 6.365 0.053 6.433 0.06 0.245 0.026 0.197 1.529 2.565 1.529l13.026-2e-3c0.665 0 1.226-0.39 1.538-1.069 0.103-0.223 0.262-0.326 0.496-0.326h0.615l0.066 1.592c-2e-3 8e-3 -2e-3 0.015-2e-3 0.02v0.358c0 0.019 4e-3 0.039 0.01 0.056-2e-3 0.443-8e-3 3.132 2e-3 3.424l2e-3 0.011c0.015 0.495 0.316 0.727 0.953 0.727h0.037c0.023-1e-3 0.186-2e-3 0.279-2e-3h0.085c0.968 0 1.305-0.418 2.046-1.11 0.788-0.738 2.511-2.778 2.654-2.979 0.063-0.09 0.07-0.31 0.061-0.452h1.148z" fill="#231F20"/>
				<path d="m13.177 102.14c-0.025-2e-3 -0.086-0.021-0.106-0.037l-3.036-2.391c-4e-3 -4e-3 -0.01-0.012-0.012-0.021v-1.688c2e-3 -0.01 0.018-0.047 0.026-0.061l2.417-2.436c8e-3 -6e-3 0.04-0.018 0.056-0.021h2.742l4.3 4.299-2.407 2.332c-8e-3 6e-3 -0.044 0.02-0.061 0.023h-3.919z" fill="#231F20"/>
				<path d="m12.073 99.641c-0.411 0-0.743-0.33-0.743-0.732 0-0.406 0.332-0.734 0.743-0.734 0.407 0 0.74 0.328 0.74 0.734 0 0.402-0.333 0.732-0.74 0.732z" fill="#231F20"/>
				<path d="m47.515 111.69c0.695-0.93 0.593-3.004 0.587-3.094l-2e-3 -0.033-0.907-1.941h2.596v5.068h-2.274z" fill="#231F20"/>
				<path d="m68.189 100.93h-1.444c-0.657-0.02-1.071 0.207-1.079 0.648-0.014 0.883-0.358 1.537-0.86 2.041-0.418 0.418-1.286 0.943-2.087 1.088-0.544 0.096-2.697 0.025-3.414 0.066 0 0-5.248 1.576-5.268 1.584-0.335 0.111-0.843 0.275-1.854 0.275-0.071 0-1.494-6e-3 -1.494-6e-3v6.293c0.066-0.055 0.149-0.088 0.24-0.088h0.459c0.109 0 2.744 0.025 3.506 2.104 0.079 0.219 0.203 0.543 0.324 0.855 0.105 0.281 0.227 0.596 0.352 0.934 0.463 1.225 1.687 4.48 1.878 4.777 5e-3 8e-3 0.011 0.02 0.017 0.027l0.07 0.137c0.049 0.094 0.053 0.205 0.012 0.301l-0.029 0.064c-0.204 0.477-0.238 0.885-0.105 1.188 0.109 0.244 0.337 0.428 0.678 0.545 0.552 0.188 1.84 0.715 1.9 1.572 0.03 0.398-0.199 0.686-0.364 0.898l-0.027 0.029c-0.159 0.203-0.204 0.273-0.189 0.34l4e-3 0.01 0.294 0.9 9.353-2.859c-0.695-2.209-3.617-11.494-4.161-12.951-0.722-1.936-0.18-4.609 1.209-5.959 0.636-0.619 1.389-1.326 1.995-1.896 0.5-0.469 0.895-0.842 1.01-0.959 6e-3 -8e-3 0.017-0.021 0.022-0.031l0.139-0.633-1.087-1.294zm-7.535 21.002c-0.237-0.736-3.584-10.072-3.584-10.072-0.33-0.83 1.452-1.498 1.805-0.609 0.324 0.816 3.505 9.627 3.624 10.072 0.24 0.667-1.621 1.302-1.845 0.609z" fill="#231F20"/>
					<path d="m58.185 113.1s-0.528-1.416-0.613-1.66c-0.076-0.219 0.599-0.455 0.682-0.227 0.089 0.209 0.576 1.484 0.613 1.598 0.094 0.273-0.585 0.503-0.682 0.289z" fill="#3F3F3F"/>
					<path d="m58.983 115.25s-0.556-1.396-0.645-1.639c-0.077-0.209 0.629-0.453 0.705-0.238 0.091 0.211 0.547 1.484 0.585 1.594 0.109 0.279-0.576 0.469-0.645 0.283z" fill="#231F20"/>
					<path d="m59.693 117.32s-0.524-1.307-0.608-1.551c-0.081-0.244 0.616-0.49 0.705-0.24 0.091 0.209 0.51 1.396 0.548 1.506 0.157 0.344-0.601 0.522-0.645 0.285z" fill="#231F20"/>
					<path d="m60.435 119.37s-0.5-1.254-0.583-1.496c-0.083-0.246 0.615-0.49 0.707-0.238 0.087 0.207 0.484 1.344 0.522 1.451 0.158 0.344-0.6 0.521-0.646 0.283z" fill="#231F20"/>
					<path d="m61.167 121.46s-0.502-1.27-0.583-1.516c-0.084-0.244 0.613-0.488 0.704-0.238 0.089 0.207 0.487 1.361 0.525 1.473 0.155 0.339-0.601 0.517-0.646 0.281z" fill="#231F20"/>
				<path d="m74.719 130.93l-0.021-0.072c-0.178-0.6-0.899-3.121-1.231-4.273l-3.843-1.359-10.251 3.137-15.47 4.314c-0.032 0.01-0.064 0.014-0.099 0.014-0.091 0-0.178-0.031-0.244-0.092l-0.074-0.066s-1.381-1.258-3.115-2.836l-0.097-0.09c-0.116-0.104-0.148-0.27-0.084-0.41l0.056-0.117c0.248-0.527 0.156-0.934-0.312-1.35l-1.97-1.869c-0.075 0.018-0.149 0.025-0.228 0.025-0.18 0-0.35-0.051-0.507-0.152-0.254-0.168-0.419-0.432-0.449-0.729-4e-3 -0.043-4e-3 -0.086-4e-3 -0.123l-2.65-2.121h-0.752c-0.14 0-0.267-0.082-0.325-0.209l-0.048-0.1c-0.083-0.176-0.176-0.373-0.276-0.586l-0.044-0.1c-0.585-1.25-1.95-4.18-2.26-4.486-0.474-0.467-4.288-3.922-5.447-4.969l-0.042-0.041-1.301-1.109c-0.252-4e-3 -0.854-0.012-1.366-0.012-0.313 0-0.542 2e-3 -0.68 8e-3 -0.095 4e-3 -0.179 6e-3 -0.252 6e-3 -0.455 0-0.697-0.078-1.006-0.322-0.201-0.156-1.479-1.021-1.713-1.154-0.049-0.029-0.607-0.361-0.986-0.361-0.324 0-0.645 0.26-1.145 0.865-0.327 0.475-0.357 0.701 0.218 1.26 0.161 0.123 1.34 1.09 1.94 1.596 0.513 0.436 0.314 1.254 0.672 1.623 0.737 0.754 2.532 2.334 2.532 2.334 0.201 0.18 0.078 0.336-0.031 0.654-0.193 0.553 0.39 1.041 0.534 1.16 0.263 0.219 3.01 2.725 3.32 2.998l0.926 0.123c0.046 0.014 2.945 2.539 2.945 2.539 0.056 0.049 0.54-0.039 0.816 0.32 0.275 0.365-0.267 0.895 0.018 1.178l2.881 2.586c0.367-0.205 0.802-0.033 0.983 0.148 0.238 0.236 0.327 0.568 0.254 0.928l1.714 1.594c8e-3 8e-3 0.311 0.279 0.724 0.646 0.272 0.244 1.03-0.367 1.086-0.367 0.091 0 0.176 0.031 0.242 0.092l5.987 5.422 15.216-5.668 0.025-8e-3c0.162-0.045 0.321-0.07 0.474-0.07 1.204 0 1.486 1.389 1.67 2.305 0.034 0.168 0.066 0.322 0.101 0.467 0.084 0.355 0.304 0.527 0.677 0.527 0.013 0 0.022-2e-3 0.032-2e-3 0.617-0.137 10.974-2.398 11.995-2.691 0.319-0.092 0.392-0.186 0.409-0.215 0.064-0.115-0.041-0.463-0.124-0.74zm-11.12 1.097c-0.608 0-1.103-0.49-1.103-1.088 0-0.602 0.494-1.09 1.103-1.09 0.607 0 1.103 0.488 1.103 1.09 0 0.598-0.495 1.088-1.103 1.088z" fill="#231F20"/>
				<path d="m10.887 91.127l0.894 0.217c0.087 0.037 0.087 0.113 0.087 0.158v3.676l-0.98 0.986v-5.037z" fill="#231F20"/>
				<path d="m65.704 99.992c-0.139-0.186-1.993-2.227-2.766-2.947-0.679-0.635-0.828-0.641-1.32-0.656 0 0-0.556 0.021-0.557 0.021-0.012 0.021-0.014 0.109-0.018 0.182v3.672l-0.106 2.309h-1.305c-0.516 0-0.934-0.271-1.149-0.74-0.139-0.297-0.402-0.654-0.883-0.654l-13.028-2e-3c-2.163 0-1.663 1.529-2.124 1.529-0.329 0-5.931 0.051-6.728 0.059l-3.211 1.525h-5.658c-0.926 0-1.193-0.439-1.354-0.707l-0.032-0.051c-0.038-0.061-0.073-0.137-0.113-0.223-0.226-0.473-0.419-0.744-0.735-0.744h-3.063c-0.693 0-1.398-0.369-1.405-1.188-2e-3 -0.223-0.012-0.334-0.021-0.49-4e-3 -0.053-6e-3 -0.109-9e-3 -0.176-8e-3 -0.145-0.05-0.266-0.092-0.357l-0.5 0.48-1.857 1.797c-0.139 0.133-0.37 0.225-0.562 0.225h-3.138l0.576 0.582 0.014 0.111c2e-3 2e-3 0.026 0.184 0.041 0.391l0.014 0.191h-0.212c-0.256 0-0.485 0.01-0.665 0.021 0.073 0.68 0.377 2.479 0.474 2.93 0.105 0.484 0.71 1.973 0.805 2.188 0.093 0.215 0.252 0.479 0.5 0.506 0.563 0.059 0.798-1.045 2.141-1.156 0.063-6e-3 0.127 4e-3 0.191 0.012 0.568 0.064 0.861 0.248 1.097 0.395 0.042 0.023 1.709 1.117 1.945 1.303 0.127 0.102 0.578 0.125 0.659 0.123 0.151-8e-3 2.423 8e-3 2.423 8e-3l1.447 1.234h7.219l0.043 0.305c0.092 0.633 1.034 0.643 1.044 0.643 0 0 1.729 2e-3 2.719 2e-3 0.801 0 1.017 0 1.057-2e-3 0.701-0.018 0.764-0.127 0.891-0.346 0.03-0.051 0.061-0.104 0.096-0.158l0.097-0.146 0.185-0.012c0.827 0.031 0.778-1.053 0.835-1.408l0.021-0.143 0.296-0.016c0.871-0.059 1.002-0.758 1.008-0.785l0.026-0.166s0.51-0.016 0.639-0.01c0.091-0.381 0.232-0.66 0.718-0.857-0.123-1.076 0.101-2.078 1.25-2.613 0.057-0.025 0.129-0.039 0.212-0.039 0.024 0 0.822 2e-3 0.822 2e-3 0.951 0 3.485-0.018 3.485-0.018 1.161-6e-3 4.036-6e-3 4.103-6e-3 0.866 0 1.29-0.137 1.572-0.229 0.063-0.023 1.478-0.447 1.489-0.451l3.879-1.172c0.024-2e-3 2.699 0.01 3.287-0.066 1.147-0.143 2.515-1.057 2.553-2.41 6e-3 -0.195 8e-3 -0.828 0.491-0.938 0.23-0.049 0.309-0.273 0.327-0.402 0.012-0.088-0.014-0.176-0.08-0.262zm-43.925 7.475s-1.8 0.014-2.131 0c-0.33-0.01-1.213-0.1-1.211-0.693v-2.223h1.08s9e-3 1.311 9e-3 1.561c0 0.254 0.296 0.254 0.979 0.268 0.407 0.01 1.273 0 1.273 0v1.087zm5.284 6e-3h-2.845v-1.094h2.845v1.094zm10.601-1.926c-0.286 0.037-0.504-0.064-0.653-0.121-0.804-0.313-2.225 0.039-2.824 0.455-0.599 0.418-1.588 0.994-1.817 1.117-0.986 0.451-2.396 0.52-2.661 0.52v-1.148c0.246 0 1.521 0 2.427-0.576 0.907-0.574 1.678-1.109 2.335-1.305 0.8-0.238 1.51-0.439 3.086-0.178 0.782 0.148 0.822 1.095 0.107 1.236zm7.523-0.762c-0.51 0-0.926-0.41-0.926-0.916 0-0.504 0.416-0.914 0.926-0.914 0.512 0 0.929 0.41 0.929 0.914 0 0.506-0.417 0.916-0.929 0.916zm11.752-1.008c-0.51 0-0.927-0.408-0.927-0.914s0.417-0.916 0.927-0.916c0.512 0 0.926 0.41 0.926 0.916s-0.414 0.914-0.926 0.914z" fill="#231F20"/>
				<path d="m35.543 101.79" fill="#F47621"/>
				<path d="m38.016 131.51" fill="#3F3F3F"/>
		<path d="m67.589 100.22l-4.776-5.664h-2.578v-1.508c0-0.15-0.082-0.275-0.18-0.275h-6.526c-0.098 0-0.18 0.125-0.18 0.275v1.508h-0.72v-1.074h-13.886v1.074h-3.188v-0.627h-5.215l-3.279-3.73h-9.87c-0.014 0.025-0.439 0.758-0.439 0.758-0.032 0.053-0.089 0.086-0.151 0.086h-1.443c-0.064 0-0.181 0-0.181 0.355v0.055c0 0.355 0.116 0.355 0.181 0.355h0.746c0.064 0 0.125 0.035 0.157 0.092 0.032 0.055 0.03 0.123-4e-3 0.178l-0.222 0.355c-0.464 0.756-0.57 0.943-0.591 0.986-0.028 0.059-0.117 0.25-0.157 0.387-0.026 0.09-0.028 0.182-0.01 0.309 0 4e-3 0.044 0.205 0.296 0.492 0.061 0.07 4.889 4.893 5.01 5.021l-4e-3 -0.014c0.405 0.457 0.468 0.783 0.489 1.754 7e-3 0.482 0.678 0.486 0.686 0.486h3.063c0.834 0 1.207 0.779 1.387 1.156 0.03 0.059 0.059 0.121 0.074 0.146 0.011 0.021 0.026 0.039 0.04 0.066 0.123 0.199 0.218 0.357 0.734 0.357h5.469s3.224-1.523 3.254-1.523c0 0 6.365-0.053 6.433-0.061 0.245-0.025 0.197-1.529 2.565-1.529l13.026 2e-3c0.665 0 1.226 0.391 1.538 1.07 0.103 0.221 0.262 0.324 0.496 0.324h0.615l0.066-1.592c-2e-3 -8e-3 -2e-3 -0.014-2e-3 -0.02v-0.357c0-0.02 4e-3 -0.039 0.01-0.057-2e-3 -0.443-8e-3 -3.133 2e-3 -3.424l2e-3 -0.012c0.015-0.494 0.316-0.727 0.953-0.727h0.037c0.023 2e-3 0.186 2e-3 0.279 2e-3h0.085c0.968 0 1.305 0.418 2.046 1.111 0.788 0.736 2.511 2.777 2.654 2.979 0.063 0.09 0.07 0.309 0.061 0.451h1.148z" fill="#231F20"/>
	<g fill="#231F20">
		<rect x="110.86" y="58.164" width="4.734" height="3.742"/>
		<rect x="123.17" y="58.164" width="4.734" height="2.806"/>
		<rect x="110.47" y="94.293" width="4.736" height="7.482"/>
		<rect x="98.16" y="94.293" width="4.736" height="7.482"/>
		<path d="m79.655 1c-0.094 0-0.186 7e-3 -0.278 7e-3 -0.283 9.3-1.212 23.615-1.199 23.459 0.49-0.012 1.7-0.091 2.193-0.091 0.478 0 0.948 0.024 1.422 0.036 20.213 0.489 37.801 11.361 47.535 27.415h-5.686c-9.07-13.226-24.191-22.075-41.447-22.661-0.607-0.021-1.212-0.045-1.825-0.045-0.628 0-1.983 0.15-2.606 0.171 0.019-0.203-4.291 26.955-7.461 33.462-8.283 17.003-52.749 15.449-69.957 18.003 16.746 1.359 54.112-0.792 65.379 10.932 7.434 6.563 12.018 40.861 11.989 40.531 0.684 0.027 1.966 0.09 2.656 0.09 0.674 0 1.342-0.025 2.01-0.051 17.83-0.666 33.363-10.154 42.266-24.17h5.58c-9.492 16.828-27.467 28.346-48.223 28.924-0.545 0.016-1.085 0.041-1.633 0.041-0.563 0-1.734 0.016-2.295 0-3e-3 -0.043 0.723 14.939 0.856 21.928 0.242 4e-3 0.479 0.02 0.722 0.02h1e-3c0.032 0 0.064-2e-3 0.098-2e-3 0.191-4e-3 0.382-0.014 0.574-0.016 43.873-0.359 79.328-35.574 79.328-78.982 0-43.632-35.816-79.001-79.999-79.001zm40.677 55.293h8.523c1.264 0 1.895 0.624 1.895 1.871v2.806c0 1.248-0.631 1.87-1.895 1.87l1.895 4.677h-2.842l-1.895-4.677h-2.84v4.677h-2.842v-11.224zm7.576 27.418v1.871h-10.418v-1.871l6.629-7.482h-6.629v-1.871h10.418v1.871l-6.629 7.482h6.629zm-19.888-25.547c0-1.247 0.631-1.871 1.895-1.871h6.629c1.264 0 1.895 0.624 1.895 1.871v9.353h-2.842v-3.742h-4.734v3.742h-2.842v-9.353zm7.576 16.194v11.224h-2.842v-11.224h2.842zm-19.889-18.065h10.418v1.871h-3.789v9.353h-2.84v-9.353h-3.789v-1.871zm0 18.065h2.842v11.224h-2.842v-11.224zm-1.894 19.935h-3.789v9.354h-2.84v-9.354h-3.789v-1.871h10.418v1.871zm0-18.064h-7.576v7.482h7.576v1.871h-8.523c-1.264 0-1.895-0.625-1.895-1.871v-7.482c0-1.247 0.631-1.871 1.895-1.871h8.523v1.871zm0-18.065h-7.576v2.338l5.682 0.936c1.264 0 1.895 0.624 1.895 1.87v2.339c0 1.247-0.631 1.871-1.895 1.871h-8.523v-1.871h7.576v-2.339l-5.682-0.935c-1.264 0-1.895-0.623-1.895-1.87v-2.338c0-1.247 0.631-1.871 1.895-1.871h8.523v1.87zm11.923 43.611c0 1.246-0.631 1.871-1.893 1.871h-6.631c-1.262 0-1.895-0.625-1.895-1.871v-7.482c0-1.248 0.633-1.871 1.895-1.871h6.631c1.262 0 1.893 0.623 1.893 1.871v7.482zm1.336-16.193h-2.842v-9.354h-3.789v-1.871h10.418v1.871h-3.787v9.354zm10.977 16.193c0 1.246-0.631 1.871-1.893 1.871h-6.631c-1.262 0-1.895-0.625-1.895-1.871v-7.482c0-1.248 0.633-1.871 1.895-1.871h6.631c1.262 0 1.893 0.623 1.893 1.871v7.482zm12.312 1.871h-8.523c-1.262 0-1.895-0.625-1.895-1.871v-9.354h2.842v9.354h7.576v1.871zm-0.558-19.935v-7.482c0-1.247 0.631-1.871 1.895-1.871h8.523v1.871h-7.576v2.806h5.682v1.87h-5.682v2.806h7.576v1.871h-8.523c-1.264 0-1.895-0.625-1.895-1.871zm12.871 10.582h-7.576v2.338l5.684 0.936c1.262 0 1.893 0.623 1.893 1.869v2.34c0 1.246-0.631 1.871-1.893 1.871h-8.525v-1.871h7.578v-2.34l-5.684-0.934c-1.262 0-1.895-0.625-1.895-1.871v-2.338c0-1.248 0.633-1.871 1.895-1.871h8.523v1.871zm6.07-8.711l-4.734-8.418v8.418h-1.895v-11.224h3.789l4.734 8.417v-8.417h1.895v11.224h-3.789z"/>
	</g>
</svg>
