<?xml version="1.0" encoding="UTF-8" standalone="no"?>
<svg xmlns="http://www.w3.org/2000/svg" xmlns:xlink="http://www.w3.org/1999/xlink" height="22" width="23">
    <defs>
        <linearGradient id="a">
            <stop offset="0" stop-color="#d7e7fe"/>
            <stop offset=".632" stop-color="#a3b6d0"/>
            <stop offset=".895" stop-color="#90a3bd"/>
            <stop offset="1" stop-color="#7588a3"/>
        </linearGradient>
        <linearGradient gradientUnits="userSpaceOnUse" xlink:href="#a" id="o" y2="20.5" x2="0" y1="1.5"
                        gradientTransform="rotate(-180 11.5 11)"/>
        <linearGradient gradientUnits="userSpaceOnUse" xlink:href="#a" id="b" y2="20.5" x2="0" y1="1.5"
                        gradientTransform="rotate(-180 11.5 11)"/>
        <linearGradient gradientUnits="userSpaceOnUse" xlink:href="#a" id="c" y2="20.5" x2="0" y1="1.5"
                        gradientTransform="rotate(-180 11.5 11)"/>
        <linearGradient gradientUnits="userSpaceOnUse" xlink:href="#a" id="d" y2="20.5" x2="0" y1="1.5"
                        gradientTransform="rotate(-180 11.5 11)"/>
        <linearGradient gradientUnits="userSpaceOnUse" xlink:href="#a" id="e" y2="20.5" x2="0" y1="1.5"
                        gradientTransform="rotate(-180 11.5 11)"/>
        <linearGradient gradientUnits="userSpaceOnUse" xlink:href="#a" id="f" y2="20.5" x2="0" y1="1.5"
                        gradientTransform="rotate(-180 11.5 11)"/>
        <linearGradient gradientUnits="userSpaceOnUse" xlink:href="#a" id="g" y2="20.5" x2="0" y1="1.5"
                        gradientTransform="rotate(-180 11.5 11)"/>
        <linearGradient gradientUnits="userSpaceOnUse" xlink:href="#a" id="h" y2="20.5" x2="0" y1="1.5"
                        gradientTransform="rotate(-180 11.5 11)"/>
        <linearGradient gradientUnits="userSpaceOnUse" xlink:href="#a" id="i" y2="20.5" x2="0" y1="1.5"
                        gradientTransform="rotate(-180 11.5 11)"/>
        <linearGradient gradientUnits="userSpaceOnUse" xlink:href="#a" id="j" y2="20.5" x2="0" y1="1.5"
                        gradientTransform="rotate(-180 11.5 11)"/>
        <linearGradient gradientUnits="userSpaceOnUse" xlink:href="#a" id="k" y2="20.5" x2="0" y1="1.5"
                        gradientTransform="rotate(-180 11.5 11)"/>
        <linearGradient gradientUnits="userSpaceOnUse" xlink:href="#a" id="l" y2="20.5" x2="0" y1="1.5"
                        gradientTransform="rotate(-180 11.5 11)"/>
        <linearGradient gradientUnits="userSpaceOnUse" xlink:href="#a" id="m" y2="20.5" x2="0" y1="1.5"
                        gradientTransform="rotate(-180 11.5 11)"/>
        <linearGradient gradientUnits="userSpaceOnUse" xlink:href="#a" id="n" y2="20.5" x2="0" y1="1.5"
                        gradientTransform="rotate(-180 11.5 11)"/>
    </defs>
    <path d="M22.5 21.5H.5V.5h22z" fill="url(#b)"/>
    <path d="M22.5 21.5H.5V.5h22z" fill="url(#c)"/>
    <path d="M22.5 21.5H.5V.5h22z" fill="url(#d)"/>
    <path d="M22.5 21.5H.5V.5h22z" fill="url(#e)"/>
    <path d="M22.5 21.5H.5V.5h22z" fill="url(#f)"/>
    <path d="M22.5 21.5H.5V.5h22z" fill="url(#g)"/>
    <path d="M22.5 21.5H.5V.5h22z" fill="url(#h)"/>
    <path d="M22.5 21.5H.5V.5h22z" fill="url(#i)"/>
    <path d="M22.5 21.5H.5V.5h22z" fill="url(#j)"/>
    <path d="M22.5 21.5H.5V.5h22z" fill="url(#k)"/>
    <path d="M22.5 21.5H.5V.5h22z" fill="url(#l)"/>
    <path d="M22.5 21.5H.5V.5h22z" fill="url(#m)"/>
    <path d="M22.5 21.5H.5V.5h22z" fill="url(#n)"/>
    <path d="M22.5 21.5H.5V.5h22z" fill="url(#o)"/>
    <path d="M.9 22v-1H22V.9h1v20.2s0 .9-.9.9" fill="#fff"/>
    <path d="M1 21l-.1 1s-.9 0-.9-.9V.9S0 0 .9 0h21.2s.9 0 .9.9L22 1H1" fill="#435978"/>
    <g transform="translate(2.2,1.8)" fill="#36c">
        <path id="p"
              d="M 18.29 6.29 14.71 2.71 a 1 1 0 0 0 -1.41 0 L 3.71 12.29 a 1 1 0 0 0 0 1.41 L 4 14 1 18 H 6
              l 1 -1 .29 .29 a 1 1 0 0 0 1.41 0 l 9.59 -9.59 A 1 1 0 0 0 18.29 6.29 Z M 7 15 5 13 l 9 -9 2 2 Z"/>
    </g>
</svg>